G04 Layer_Color=2752767*
%FSLAX25Y25*%
%MOIN*%
G70*
G01*
G75*
%ADD34C,0.01000*%
%ADD49C,0.00500*%
%ADD94C,0.01600*%
%ADD95C,0.01400*%
D34*
X81699Y-67402D02*
X77700D01*
Y-73400D01*
X81699D01*
X77700Y-70401D02*
X79699D01*
X134499Y-73400D02*
X130500D01*
X134499Y-69401D01*
Y-68402D01*
X133499Y-67402D01*
X131500D01*
X130500Y-68402D01*
X139497Y-73400D02*
Y-67402D01*
X136498Y-70401D01*
X140497D01*
X142496Y-68402D02*
X143496Y-67402D01*
X145495D01*
X146495Y-68402D01*
Y-69401D01*
X145495Y-70401D01*
X144495D01*
X145495D01*
X146495Y-71401D01*
Y-72400D01*
X145495Y-73400D01*
X143496D01*
X142496Y-72400D01*
X200081Y-73400D02*
X202081D01*
X201081D01*
Y-67402D01*
X200081Y-68402D01*
X205080Y-73400D02*
X207079D01*
X206079D01*
Y-67402D01*
X205080Y-68402D01*
X210078Y-73400D02*
Y-72400D01*
X211078D01*
Y-73400D01*
X210078D01*
X215076Y-68402D02*
X216076Y-67402D01*
X218075D01*
X219075Y-68402D01*
Y-69401D01*
X218075Y-70401D01*
X219075Y-71401D01*
Y-72400D01*
X218075Y-73400D01*
X216076D01*
X215076Y-72400D01*
Y-71401D01*
X216076Y-70401D01*
X215076Y-69401D01*
Y-68402D01*
X216076Y-70401D02*
X218075D01*
X221075Y-73400D02*
X223074D01*
X222074D01*
Y-67402D01*
X221075Y-68402D01*
X226073Y-73400D02*
X228072D01*
X227073D01*
Y-67402D01*
X226073Y-68402D01*
X231071Y-73400D02*
Y-69401D01*
X232071D01*
X233071Y-70401D01*
Y-73400D01*
Y-70401D01*
X234070Y-69401D01*
X235070Y-70401D01*
Y-73400D01*
X237069D02*
X239069D01*
X238069D01*
Y-69401D01*
X237069D01*
X242068Y-73400D02*
X244067D01*
X243067D01*
Y-67402D01*
X242068D01*
X255064Y-73400D02*
X253064Y-71401D01*
Y-69401D01*
X255064Y-67402D01*
X258063Y-68402D02*
X259062Y-67402D01*
X261062D01*
X262061Y-68402D01*
Y-72400D01*
X261062Y-73400D01*
X259062D01*
X258063Y-72400D01*
Y-68402D01*
X264061Y-73400D02*
Y-72400D01*
X265060D01*
Y-73400D01*
X264061D01*
X269059Y-68402D02*
X270059Y-67402D01*
X272058D01*
X273058Y-68402D01*
Y-69401D01*
X272058Y-70401D01*
X271058D01*
X272058D01*
X273058Y-71401D01*
Y-72400D01*
X272058Y-73400D01*
X270059D01*
X269059Y-72400D01*
X275057Y-73400D02*
Y-69401D01*
X276057D01*
X277056Y-70401D01*
Y-73400D01*
Y-70401D01*
X278056Y-69401D01*
X279056Y-70401D01*
Y-73400D01*
X281055D02*
Y-69401D01*
X282055D01*
X283054Y-70401D01*
Y-73400D01*
Y-70401D01*
X284054Y-69401D01*
X285054Y-70401D01*
Y-73400D01*
X287053D02*
X289053Y-71401D01*
Y-69401D01*
X287053Y-67402D01*
X569573Y-73400D02*
Y-67402D01*
X572573D01*
X573572Y-68402D01*
Y-70401D01*
X572573Y-71401D01*
X569573D01*
X575571Y-67402D02*
X579570D01*
X577571D01*
Y-73400D01*
X581569Y-67402D02*
Y-73400D01*
Y-70401D01*
X585568D01*
Y-67402D01*
Y-73400D01*
X619961D02*
Y-67402D01*
X622960D01*
X623960Y-68402D01*
Y-70401D01*
X622960Y-71401D01*
X619961D01*
X621960D02*
X623960Y-73400D01*
X626959D02*
X628958D01*
X629958Y-72400D01*
Y-70401D01*
X628958Y-69401D01*
X626959D01*
X625959Y-70401D01*
Y-72400D01*
X626959Y-73400D01*
X631957Y-69401D02*
Y-72400D01*
X632957Y-73400D01*
X635956D01*
Y-69401D01*
X637955Y-73400D02*
Y-69401D01*
X640954D01*
X641954Y-70401D01*
Y-73400D01*
X647952Y-67402D02*
Y-73400D01*
X644953D01*
X643953Y-72400D01*
Y-70401D01*
X644953Y-69401D01*
X647952D01*
X77700Y-79402D02*
Y-85400D01*
X80699D01*
X81699Y-84400D01*
Y-83401D01*
X80699Y-82401D01*
X77700D01*
X80699D01*
X81699Y-81401D01*
Y-80402D01*
X80699Y-79402D01*
X77700D01*
X134499Y-85400D02*
X130500D01*
X134499Y-81401D01*
Y-80402D01*
X133499Y-79402D01*
X131500D01*
X130500Y-80402D01*
X204080Y-85400D02*
X200081D01*
X204080Y-81401D01*
Y-80402D01*
X203080Y-79402D01*
X201081D01*
X200081Y-80402D01*
X206079Y-79402D02*
X210078D01*
Y-80402D01*
X206079Y-84400D01*
Y-85400D01*
X212077D02*
Y-84400D01*
X213077D01*
Y-85400D01*
X212077D01*
X221075Y-79402D02*
X217076D01*
Y-82401D01*
X219075Y-81401D01*
X220075D01*
X221075Y-82401D01*
Y-84400D01*
X220075Y-85400D01*
X218075D01*
X217076Y-84400D01*
X223074Y-85400D02*
Y-81401D01*
X224074D01*
X225073Y-82401D01*
Y-85400D01*
Y-82401D01*
X226073Y-81401D01*
X227073Y-82401D01*
Y-85400D01*
X229072D02*
X231071D01*
X230072D01*
Y-81401D01*
X229072D01*
X234070Y-85400D02*
X236070D01*
X235070D01*
Y-79402D01*
X234070D01*
X247066Y-85400D02*
X245067Y-83401D01*
Y-81401D01*
X247066Y-79402D01*
X250065Y-80402D02*
X251065Y-79402D01*
X253064D01*
X254064Y-80402D01*
Y-84400D01*
X253064Y-85400D01*
X251065D01*
X250065Y-84400D01*
Y-80402D01*
X256063Y-85400D02*
Y-84400D01*
X257063D01*
Y-85400D01*
X256063D01*
X265060Y-79402D02*
X263061Y-80402D01*
X261062Y-82401D01*
Y-84400D01*
X262061Y-85400D01*
X264061D01*
X265060Y-84400D01*
Y-83401D01*
X264061Y-82401D01*
X261062D01*
X267060Y-84400D02*
X268059Y-85400D01*
X270059D01*
X271058Y-84400D01*
Y-80402D01*
X270059Y-79402D01*
X268059D01*
X267060Y-80402D01*
Y-81401D01*
X268059Y-82401D01*
X271058D01*
X273058Y-80402D02*
X274057Y-79402D01*
X276057D01*
X277056Y-80402D01*
Y-81401D01*
X276057Y-82401D01*
X277056Y-83401D01*
Y-84400D01*
X276057Y-85400D01*
X274057D01*
X273058Y-84400D01*
Y-83401D01*
X274057Y-82401D01*
X273058Y-81401D01*
Y-80402D01*
X274057Y-82401D02*
X276057D01*
X283054Y-79402D02*
X279056D01*
Y-82401D01*
X281055Y-81401D01*
X282055D01*
X283054Y-82401D01*
Y-84400D01*
X282055Y-85400D01*
X280055D01*
X279056Y-84400D01*
X285054Y-85400D02*
Y-81401D01*
X286053D01*
X287053Y-82401D01*
Y-85400D01*
Y-82401D01*
X288053Y-81401D01*
X289053Y-82401D01*
Y-85400D01*
X291052D02*
Y-81401D01*
X292052D01*
X293051Y-82401D01*
Y-85400D01*
Y-82401D01*
X294051Y-81401D01*
X295051Y-82401D01*
Y-85400D01*
X297050D02*
X299049Y-83401D01*
Y-81401D01*
X297050Y-79402D01*
X569573Y-85400D02*
Y-79402D01*
X572573D01*
X573572Y-80402D01*
Y-82401D01*
X572573Y-83401D01*
X569573D01*
X575571Y-79402D02*
X579570D01*
X577571D01*
Y-85400D01*
X581569Y-79402D02*
Y-85400D01*
Y-82401D01*
X585568D01*
Y-79402D01*
Y-85400D01*
X619961D02*
Y-79402D01*
X622960D01*
X623960Y-80402D01*
Y-82401D01*
X622960Y-83401D01*
X619961D01*
X621960D02*
X623960Y-85400D01*
X626959D02*
X628958D01*
X629958Y-84400D01*
Y-82401D01*
X628958Y-81401D01*
X626959D01*
X625959Y-82401D01*
Y-84400D01*
X626959Y-85400D01*
X631957Y-81401D02*
Y-84400D01*
X632957Y-85400D01*
X635956D01*
Y-81401D01*
X637955Y-85400D02*
Y-81401D01*
X640954D01*
X641954Y-82401D01*
Y-85400D01*
X647952Y-79402D02*
Y-85400D01*
X644953D01*
X643953Y-84400D01*
Y-82401D01*
X644953Y-81401D01*
X647952D01*
X77700Y-91402D02*
Y-97400D01*
X80699D01*
X81699Y-96400D01*
Y-92402D01*
X80699Y-91402D01*
X77700D01*
X130500Y-92402D02*
X131500Y-91402D01*
X133499D01*
X134499Y-92402D01*
Y-93401D01*
X133499Y-94401D01*
X132499D01*
X133499D01*
X134499Y-95401D01*
Y-96400D01*
X133499Y-97400D01*
X131500D01*
X130500Y-96400D01*
X136498Y-92402D02*
X137498Y-91402D01*
X139497D01*
X140497Y-92402D01*
Y-96400D01*
X139497Y-97400D01*
X137498D01*
X136498Y-96400D01*
Y-92402D01*
X200081D02*
X201081Y-91402D01*
X203080D01*
X204080Y-92402D01*
Y-93401D01*
X203080Y-94401D01*
X202081D01*
X203080D01*
X204080Y-95401D01*
Y-96400D01*
X203080Y-97400D01*
X201081D01*
X200081Y-96400D01*
X210078Y-91402D02*
X206079D01*
Y-94401D01*
X208079Y-93401D01*
X209079D01*
X210078Y-94401D01*
Y-96400D01*
X209079Y-97400D01*
X207079D01*
X206079Y-96400D01*
X212077Y-97400D02*
Y-93401D01*
X213077D01*
X214077Y-94401D01*
Y-97400D01*
Y-94401D01*
X215076Y-93401D01*
X216076Y-94401D01*
Y-97400D01*
X218075D02*
X220075D01*
X219075D01*
Y-93401D01*
X218075D01*
X223074Y-97400D02*
X225073D01*
X224074D01*
Y-91402D01*
X223074D01*
X236070Y-97400D02*
X234070Y-95401D01*
Y-93401D01*
X236070Y-91402D01*
X239069Y-92402D02*
X240068Y-91402D01*
X242068D01*
X243068Y-92402D01*
Y-96400D01*
X242068Y-97400D01*
X240068D01*
X239069Y-96400D01*
Y-92402D01*
X245067Y-97400D02*
Y-96400D01*
X246066D01*
Y-97400D01*
X245067D01*
X250065Y-92402D02*
X251065Y-91402D01*
X253064D01*
X254064Y-92402D01*
Y-93401D01*
X253064Y-94401D01*
X254064Y-95401D01*
Y-96400D01*
X253064Y-97400D01*
X251065D01*
X250065Y-96400D01*
Y-95401D01*
X251065Y-94401D01*
X250065Y-93401D01*
Y-92402D01*
X251065Y-94401D02*
X253064D01*
X256063Y-92402D02*
X257063Y-91402D01*
X259062D01*
X260062Y-92402D01*
Y-93401D01*
X259062Y-94401D01*
X260062Y-95401D01*
Y-96400D01*
X259062Y-97400D01*
X257063D01*
X256063Y-96400D01*
Y-95401D01*
X257063Y-94401D01*
X256063Y-93401D01*
Y-92402D01*
X257063Y-94401D02*
X259062D01*
X262061Y-96400D02*
X263061Y-97400D01*
X265060D01*
X266060Y-96400D01*
Y-92402D01*
X265060Y-91402D01*
X263061D01*
X262061Y-92402D01*
Y-93401D01*
X263061Y-94401D01*
X266060D01*
X268059Y-97400D02*
Y-93401D01*
X269059D01*
X270059Y-94401D01*
Y-97400D01*
Y-94401D01*
X271058Y-93401D01*
X272058Y-94401D01*
Y-97400D01*
X274057D02*
Y-93401D01*
X275057D01*
X276057Y-94401D01*
Y-97400D01*
Y-94401D01*
X277056Y-93401D01*
X278056Y-94401D01*
Y-97400D01*
X280055D02*
X282055Y-95401D01*
Y-93401D01*
X280055Y-91402D01*
X569573Y-97400D02*
Y-91402D01*
X572573D01*
X573572Y-92402D01*
Y-94401D01*
X572573Y-95401D01*
X569573D01*
X575571Y-91402D02*
X579570D01*
X577571D01*
Y-97400D01*
X581569Y-91402D02*
Y-97400D01*
Y-94401D01*
X585568D01*
Y-91402D01*
Y-97400D01*
X619961D02*
Y-91402D01*
X622960D01*
X623960Y-92402D01*
Y-94401D01*
X622960Y-95401D01*
X619961D01*
X621960D02*
X623960Y-97400D01*
X626959D02*
X628958D01*
X629958Y-96400D01*
Y-94401D01*
X628958Y-93401D01*
X626959D01*
X625959Y-94401D01*
Y-96400D01*
X626959Y-97400D01*
X631957Y-93401D02*
Y-96400D01*
X632957Y-97400D01*
X635956D01*
Y-93401D01*
X637955Y-97400D02*
Y-93401D01*
X640954D01*
X641954Y-94401D01*
Y-97400D01*
X647952Y-91402D02*
Y-97400D01*
X644953D01*
X643953Y-96400D01*
Y-94401D01*
X644953Y-93401D01*
X647952D01*
X77700Y-109400D02*
Y-105401D01*
X79699Y-103402D01*
X81699Y-105401D01*
Y-109400D01*
Y-106401D01*
X77700D01*
X133499Y-109400D02*
Y-103402D01*
X130500Y-106401D01*
X134499D01*
X200081Y-109400D02*
X202081D01*
X201081D01*
Y-103402D01*
X200081Y-104402D01*
X205080Y-109400D02*
X207079D01*
X206079D01*
Y-103402D01*
X205080Y-104402D01*
X214077Y-103402D02*
X210078D01*
Y-106401D01*
X212077Y-105401D01*
X213077D01*
X214077Y-106401D01*
Y-108400D01*
X213077Y-109400D01*
X211078D01*
X210078Y-108400D01*
X216076Y-109400D02*
Y-105401D01*
X217076D01*
X218075Y-106401D01*
Y-109400D01*
Y-106401D01*
X219075Y-105401D01*
X220075Y-106401D01*
Y-109400D01*
X222074D02*
X224074D01*
X223074D01*
Y-105401D01*
X222074D01*
X227073Y-109400D02*
X229072D01*
X228072D01*
Y-103402D01*
X227073D01*
X240068Y-109400D02*
X238069Y-107401D01*
Y-105401D01*
X240068Y-103402D01*
X247066Y-109400D02*
X243067D01*
X247066Y-105401D01*
Y-104402D01*
X246066Y-103402D01*
X244067D01*
X243067Y-104402D01*
X249065Y-109400D02*
Y-108400D01*
X250065D01*
Y-109400D01*
X249065D01*
X254064Y-108400D02*
X255064Y-109400D01*
X257063D01*
X258063Y-108400D01*
Y-104402D01*
X257063Y-103402D01*
X255064D01*
X254064Y-104402D01*
Y-105401D01*
X255064Y-106401D01*
X258063D01*
X264061Y-109400D02*
X260062D01*
X264061Y-105401D01*
Y-104402D01*
X263061Y-103402D01*
X261062D01*
X260062Y-104402D01*
X266060Y-109400D02*
X268059D01*
X267060D01*
Y-103402D01*
X266060Y-104402D01*
X271058Y-109400D02*
Y-105401D01*
X272058D01*
X273058Y-106401D01*
Y-109400D01*
Y-106401D01*
X274057Y-105401D01*
X275057Y-106401D01*
Y-109400D01*
X277056D02*
Y-105401D01*
X278056D01*
X279056Y-106401D01*
Y-109400D01*
Y-106401D01*
X280055Y-105401D01*
X281055Y-106401D01*
Y-109400D01*
X283054D02*
X285054Y-107401D01*
Y-105401D01*
X283054Y-103402D01*
X569573Y-109400D02*
Y-103402D01*
X573572Y-109400D01*
Y-103402D01*
X575571Y-109400D02*
Y-103402D01*
X578571D01*
X579570Y-104402D01*
Y-106401D01*
X578571Y-107401D01*
X575571D01*
X581569Y-103402D02*
X585568D01*
X583569D01*
Y-109400D01*
X587568Y-103402D02*
Y-109400D01*
Y-106401D01*
X591566D01*
Y-103402D01*
Y-109400D01*
X619961D02*
Y-103402D01*
X622960D01*
X623960Y-104402D01*
Y-106401D01*
X622960Y-107401D01*
X619961D01*
X621960D02*
X623960Y-109400D01*
X626959D02*
X628958D01*
X629958Y-108400D01*
Y-106401D01*
X628958Y-105401D01*
X626959D01*
X625959Y-106401D01*
Y-108400D01*
X626959Y-109400D01*
X631957Y-105401D02*
Y-108400D01*
X632957Y-109400D01*
X635956D01*
Y-105401D01*
X637955Y-109400D02*
Y-105401D01*
X640954D01*
X641954Y-106401D01*
Y-109400D01*
X647952Y-103402D02*
Y-109400D01*
X644953D01*
X643953Y-108400D01*
Y-106401D01*
X644953Y-105401D01*
X647952D01*
X81699Y-116402D02*
X80699Y-115402D01*
X78700D01*
X77700Y-116402D01*
Y-120400D01*
X78700Y-121400D01*
X80699D01*
X81699Y-120400D01*
X134499Y-121400D02*
X130500D01*
X134499Y-117401D01*
Y-116402D01*
X133499Y-115402D01*
X131500D01*
X130500Y-116402D01*
X204080Y-121400D02*
X200081D01*
X204080Y-117401D01*
Y-116402D01*
X203080Y-115402D01*
X201081D01*
X200081Y-116402D01*
X206079Y-115402D02*
X210078D01*
Y-116402D01*
X206079Y-120400D01*
Y-121400D01*
X212077D02*
Y-120400D01*
X213077D01*
Y-121400D01*
X212077D01*
X221075Y-115402D02*
X217076D01*
Y-118401D01*
X219075Y-117401D01*
X220075D01*
X221075Y-118401D01*
Y-120400D01*
X220075Y-121400D01*
X218075D01*
X217076Y-120400D01*
X227073Y-115402D02*
X223074D01*
Y-118401D01*
X225073Y-117401D01*
X226073D01*
X227073Y-118401D01*
Y-120400D01*
X226073Y-121400D01*
X224074D01*
X223074Y-120400D01*
X229072D02*
X230072Y-121400D01*
X232071D01*
X233071Y-120400D01*
Y-116402D01*
X232071Y-115402D01*
X230072D01*
X229072Y-116402D01*
Y-117401D01*
X230072Y-118401D01*
X233071D01*
X235070Y-121400D02*
Y-117401D01*
X236070D01*
X237069Y-118401D01*
Y-121400D01*
Y-118401D01*
X238069Y-117401D01*
X239069Y-118401D01*
Y-121400D01*
X241068D02*
X243068D01*
X242068D01*
Y-117401D01*
X241068D01*
X246066Y-121400D02*
X248066D01*
X247066D01*
Y-115402D01*
X246066D01*
X259062Y-121400D02*
X257063Y-119401D01*
Y-117401D01*
X259062Y-115402D01*
X262061Y-116402D02*
X263061Y-115402D01*
X265060D01*
X266060Y-116402D01*
Y-120400D01*
X265060Y-121400D01*
X263061D01*
X262061Y-120400D01*
Y-116402D01*
X268059Y-121400D02*
Y-120400D01*
X269059D01*
Y-121400D01*
X268059D01*
X273058Y-115402D02*
X277056D01*
Y-116402D01*
X273058Y-120400D01*
Y-121400D01*
X279056D02*
Y-117401D01*
X280055D01*
X281055Y-118401D01*
Y-121400D01*
Y-118401D01*
X282055Y-117401D01*
X283054Y-118401D01*
Y-121400D01*
X285054D02*
Y-117401D01*
X286053D01*
X287053Y-118401D01*
Y-121400D01*
Y-118401D01*
X288053Y-117401D01*
X289053Y-118401D01*
Y-121400D01*
X291052D02*
X293051Y-119401D01*
Y-117401D01*
X291052Y-115402D01*
X337441Y-121400D02*
Y-115402D01*
X334442Y-118401D01*
X338440D01*
X340440Y-116402D02*
X341440Y-115402D01*
X343439D01*
X344439Y-116402D01*
Y-117401D01*
X343439Y-118401D01*
X342439D01*
X343439D01*
X344439Y-119401D01*
Y-120400D01*
X343439Y-121400D01*
X341440D01*
X340440Y-120400D01*
X346438Y-121400D02*
Y-120400D01*
X347438D01*
Y-121400D01*
X346438D01*
X351436Y-116402D02*
X352436Y-115402D01*
X354435D01*
X355435Y-116402D01*
Y-117401D01*
X354435Y-118401D01*
X353436D01*
X354435D01*
X355435Y-119401D01*
Y-120400D01*
X354435Y-121400D01*
X352436D01*
X351436Y-120400D01*
X357434Y-116402D02*
X358434Y-115402D01*
X360433D01*
X361433Y-116402D01*
Y-120400D01*
X360433Y-121400D01*
X358434D01*
X357434Y-120400D01*
Y-116402D01*
X363432Y-115402D02*
X367431D01*
Y-116402D01*
X363432Y-120400D01*
Y-121400D01*
X369430D02*
Y-117401D01*
X370430D01*
X371430Y-118401D01*
Y-121400D01*
Y-118401D01*
X372429Y-117401D01*
X373429Y-118401D01*
Y-121400D01*
X375429D02*
X377428D01*
X376428D01*
Y-117401D01*
X375429D01*
X380427Y-121400D02*
X382426D01*
X381427D01*
Y-115402D01*
X380427D01*
X393423Y-121400D02*
X391423Y-119401D01*
Y-117401D01*
X393423Y-115402D01*
X396422Y-121400D02*
X398421D01*
X397421D01*
Y-115402D01*
X396422Y-116402D01*
X401420Y-121400D02*
Y-120400D01*
X402420D01*
Y-121400D01*
X401420D01*
X406419D02*
X408418D01*
X407418D01*
Y-115402D01*
X406419Y-116402D01*
X411417Y-121400D02*
Y-117401D01*
X412417D01*
X413416Y-118401D01*
Y-121400D01*
Y-118401D01*
X414416Y-117401D01*
X415415Y-118401D01*
Y-121400D01*
X417415D02*
Y-117401D01*
X418415D01*
X419414Y-118401D01*
Y-121400D01*
Y-118401D01*
X420414Y-117401D01*
X421414Y-118401D01*
Y-121400D01*
X423413D02*
X425412Y-119401D01*
Y-117401D01*
X423413Y-115402D01*
X448409Y-121400D02*
X450408D01*
X449408D01*
Y-115402D01*
X448409Y-116402D01*
X457406Y-115402D02*
X453407D01*
Y-118401D01*
X455407Y-117401D01*
X456406D01*
X457406Y-118401D01*
Y-120400D01*
X456406Y-121400D01*
X454407D01*
X453407Y-120400D01*
X459405Y-121400D02*
Y-120400D01*
X460405D01*
Y-121400D01*
X459405D01*
X464404Y-115402D02*
X468402D01*
Y-116402D01*
X464404Y-120400D01*
Y-121400D01*
X473401D02*
Y-115402D01*
X470402Y-118401D01*
X474400D01*
X476400Y-116402D02*
X477399Y-115402D01*
X479399D01*
X480398Y-116402D01*
Y-117401D01*
X479399Y-118401D01*
X480398Y-119401D01*
Y-120400D01*
X479399Y-121400D01*
X477399D01*
X476400Y-120400D01*
Y-119401D01*
X477399Y-118401D01*
X476400Y-117401D01*
Y-116402D01*
X477399Y-118401D02*
X479399D01*
X482398Y-121400D02*
Y-117401D01*
X483397D01*
X484397Y-118401D01*
Y-121400D01*
Y-118401D01*
X485397Y-117401D01*
X486397Y-118401D01*
Y-121400D01*
X488396D02*
X490395D01*
X489396D01*
Y-117401D01*
X488396D01*
X493394Y-121400D02*
X495394D01*
X494394D01*
Y-115402D01*
X493394D01*
X506390Y-121400D02*
X504391Y-119401D01*
Y-117401D01*
X506390Y-115402D01*
X509389Y-116402D02*
X510389Y-115402D01*
X512388D01*
X513388Y-116402D01*
Y-120400D01*
X512388Y-121400D01*
X510389D01*
X509389Y-120400D01*
Y-116402D01*
X515387Y-121400D02*
Y-120400D01*
X516387D01*
Y-121400D01*
X515387D01*
X523385D02*
Y-115402D01*
X520386Y-118401D01*
X524384D01*
X526383Y-121400D02*
Y-117401D01*
X527383D01*
X528383Y-118401D01*
Y-121400D01*
Y-118401D01*
X529383Y-117401D01*
X530382Y-118401D01*
Y-121400D01*
X532382D02*
Y-117401D01*
X533381D01*
X534381Y-118401D01*
Y-121400D01*
Y-118401D01*
X535381Y-117401D01*
X536380Y-118401D01*
Y-121400D01*
X538380D02*
X540379Y-119401D01*
Y-117401D01*
X538380Y-115402D01*
X569573Y-121400D02*
Y-115402D01*
X572573D01*
X573572Y-116402D01*
Y-118401D01*
X572573Y-119401D01*
X569573D01*
X575571Y-115402D02*
X579570D01*
X577571D01*
Y-121400D01*
X581569Y-115402D02*
Y-121400D01*
Y-118401D01*
X585568D01*
Y-115402D01*
Y-121400D01*
X623960Y-116402D02*
X622960Y-115402D01*
X620961D01*
X619961Y-116402D01*
Y-117401D01*
X620961Y-118401D01*
X622960D01*
X623960Y-119401D01*
Y-120400D01*
X622960Y-121400D01*
X620961D01*
X619961Y-120400D01*
X625959Y-121400D02*
X627958D01*
X626959D01*
Y-115402D01*
X625959D01*
X631957Y-121400D02*
X633956D01*
X634956Y-120400D01*
Y-118401D01*
X633956Y-117401D01*
X631957D01*
X630957Y-118401D01*
Y-120400D01*
X631957Y-121400D01*
X637955Y-116402D02*
Y-117401D01*
X636955D01*
X638955D01*
X637955D01*
Y-120400D01*
X638955Y-121400D01*
X134499Y-133400D02*
X130500D01*
X134499Y-129401D01*
Y-128402D01*
X133499Y-127402D01*
X131500D01*
X130500Y-128402D01*
X136498D02*
X137498Y-127402D01*
X139497D01*
X140497Y-128402D01*
Y-129401D01*
X139497Y-130401D01*
X140497Y-131401D01*
Y-132400D01*
X139497Y-133400D01*
X137498D01*
X136498Y-132400D01*
Y-131401D01*
X137498Y-130401D01*
X136498Y-129401D01*
Y-128402D01*
X137498Y-130401D02*
X139497D01*
X142496Y-133400D02*
X144495D01*
X143496D01*
Y-127402D01*
X142496Y-128402D01*
X155296Y-127402D02*
X159294D01*
X157295D01*
Y-133400D01*
X162293D02*
X164293D01*
X165292Y-132400D01*
Y-130401D01*
X164293Y-129401D01*
X162293D01*
X161293Y-130401D01*
Y-132400D01*
X162293Y-133400D01*
X168291Y-128402D02*
Y-129401D01*
X167292D01*
X169291D01*
X168291D01*
Y-132400D01*
X169291Y-133400D01*
X173290Y-129401D02*
X175289D01*
X176289Y-130401D01*
Y-133400D01*
X173290D01*
X172290Y-132400D01*
X173290Y-131401D01*
X176289D01*
X178288Y-133400D02*
X180287D01*
X179288D01*
Y-127402D01*
X178288D01*
X285038Y-143401D02*
X289036D01*
X285038Y-141401D02*
X289036D01*
X301032Y-140402D02*
X300033Y-139402D01*
X298033D01*
X297034Y-140402D01*
Y-144400D01*
X298033Y-145400D01*
X300033D01*
X301032Y-144400D01*
X304031Y-141401D02*
X306031D01*
X307031Y-142401D01*
Y-145400D01*
X304031D01*
X303032Y-144400D01*
X304031Y-143401D01*
X307031D01*
X309030Y-145400D02*
X311029D01*
X310030D01*
Y-139402D01*
X309030D01*
X318027Y-141401D02*
X315028D01*
X314028Y-142401D01*
Y-144400D01*
X315028Y-145400D01*
X318027D01*
X320026Y-141401D02*
Y-144400D01*
X321026Y-145400D01*
X324025D01*
Y-141401D01*
X326024Y-145400D02*
X328024D01*
X327024D01*
Y-139402D01*
X326024D01*
X332022Y-141401D02*
X334022D01*
X335021Y-142401D01*
Y-145400D01*
X332022D01*
X331023Y-144400D01*
X332022Y-143401D01*
X335021D01*
X338020Y-140402D02*
Y-141401D01*
X337021D01*
X339020D01*
X338020D01*
Y-144400D01*
X339020Y-145400D01*
X345018D02*
X343019D01*
X342019Y-144400D01*
Y-142401D01*
X343019Y-141401D01*
X345018D01*
X346018Y-142401D01*
Y-143401D01*
X342019D01*
X352016Y-139402D02*
Y-145400D01*
X349017D01*
X348017Y-144400D01*
Y-142401D01*
X349017Y-141401D01*
X352016D01*
X361013Y-145400D02*
Y-140402D01*
Y-142401D01*
X360013D01*
X362013D01*
X361013D01*
Y-140402D01*
X362013Y-139402D01*
X365012Y-141401D02*
Y-145400D01*
Y-143401D01*
X366011Y-142401D01*
X367011Y-141401D01*
X368011D01*
X372009Y-145400D02*
X374009D01*
X375009Y-144400D01*
Y-142401D01*
X374009Y-141401D01*
X372009D01*
X371010Y-142401D01*
Y-144400D01*
X372009Y-145400D01*
X377008D02*
Y-141401D01*
X378008D01*
X379007Y-142401D01*
Y-145400D01*
Y-142401D01*
X380007Y-141401D01*
X381007Y-142401D01*
Y-145400D01*
X390004Y-140402D02*
Y-141401D01*
X389004D01*
X391003D01*
X390004D01*
Y-144400D01*
X391003Y-145400D01*
X395002D02*
X397001D01*
X398001Y-144400D01*
Y-142401D01*
X397001Y-141401D01*
X395002D01*
X394002Y-142401D01*
Y-144400D01*
X395002Y-145400D01*
X401000D02*
X402999D01*
X403999Y-144400D01*
Y-142401D01*
X402999Y-141401D01*
X401000D01*
X400000Y-142401D01*
Y-144400D01*
X401000Y-145400D01*
X405998D02*
X407998D01*
X406998D01*
Y-139402D01*
X405998D01*
X416995Y-145400D02*
X419994D01*
X420994Y-144400D01*
X419994Y-143401D01*
X417994D01*
X416995Y-142401D01*
X417994Y-141401D01*
X420994D01*
X423993Y-140402D02*
Y-141401D01*
X422993D01*
X424992D01*
X423993D01*
Y-144400D01*
X424992Y-145400D01*
X428991Y-141401D02*
X430990D01*
X431990Y-142401D01*
Y-145400D01*
X428991D01*
X427991Y-144400D01*
X428991Y-143401D01*
X431990D01*
X433989Y-141401D02*
Y-145400D01*
Y-143401D01*
X434989Y-142401D01*
X435989Y-141401D01*
X436988D01*
X440987Y-140402D02*
Y-141401D01*
X439987D01*
X441987D01*
X440987D01*
Y-144400D01*
X441987Y-145400D01*
X454983Y-141401D02*
X451984D01*
X450984Y-142401D01*
Y-144400D01*
X451984Y-145400D01*
X454983D01*
X459981D02*
X457982D01*
X456982Y-144400D01*
Y-142401D01*
X457982Y-141401D01*
X459981D01*
X460981Y-142401D01*
Y-143401D01*
X456982D01*
X462980Y-145400D02*
Y-141401D01*
X465979D01*
X466979Y-142401D01*
Y-145400D01*
X469978Y-140402D02*
Y-141401D01*
X468978D01*
X470977D01*
X469978D01*
Y-144400D01*
X470977Y-145400D01*
X473976Y-141401D02*
Y-145400D01*
Y-143401D01*
X474976Y-142401D01*
X475976Y-141401D01*
X476975D01*
X482973Y-145400D02*
X480974D01*
X479975Y-144400D01*
Y-142401D01*
X480974Y-141401D01*
X482973D01*
X483973Y-142401D01*
Y-143401D01*
X479975D01*
X491971Y-147399D02*
Y-141401D01*
X494970D01*
X495969Y-142401D01*
Y-144400D01*
X494970Y-145400D01*
X491971D01*
X498968D02*
X500968D01*
X501967Y-144400D01*
Y-142401D01*
X500968Y-141401D01*
X498968D01*
X497969Y-142401D01*
Y-144400D01*
X498968Y-145400D01*
X503967D02*
X506966D01*
X507965Y-144400D01*
X506966Y-143401D01*
X504966D01*
X503967Y-142401D01*
X504966Y-141401D01*
X507965D01*
X509965Y-145400D02*
X511964D01*
X510964D01*
Y-141401D01*
X509965D01*
X515963Y-140402D02*
Y-141401D01*
X514963D01*
X516962D01*
X515963D01*
Y-144400D01*
X516962Y-145400D01*
X519962D02*
X521961D01*
X520961D01*
Y-141401D01*
X519962D01*
X525960Y-145400D02*
X527959D01*
X528959Y-144400D01*
Y-142401D01*
X527959Y-141401D01*
X525960D01*
X524960Y-142401D01*
Y-144400D01*
X525960Y-145400D01*
X530958D02*
Y-141401D01*
X533957D01*
X534957Y-142401D01*
Y-145400D01*
X543954Y-140402D02*
Y-141401D01*
X542954D01*
X544953D01*
X543954D01*
Y-144400D01*
X544953Y-145400D01*
X548952D02*
X550951D01*
X551951Y-144400D01*
Y-142401D01*
X550951Y-141401D01*
X548952D01*
X547953Y-142401D01*
Y-144400D01*
X548952Y-145400D01*
X560948Y-140402D02*
Y-141401D01*
X559949D01*
X561948D01*
X560948D01*
Y-144400D01*
X561948Y-145400D01*
X565947D02*
X567946D01*
X568946Y-144400D01*
Y-142401D01*
X567946Y-141401D01*
X565947D01*
X564947Y-142401D01*
Y-144400D01*
X565947Y-145400D01*
X571945D02*
X573944D01*
X574944Y-144400D01*
Y-142401D01*
X573944Y-141401D01*
X571945D01*
X570945Y-142401D01*
Y-144400D01*
X571945Y-145400D01*
X576943D02*
X578942D01*
X577943D01*
Y-139402D01*
X576943D01*
X590939Y-145400D02*
X588939D01*
X587940Y-144400D01*
Y-142401D01*
X588939Y-141401D01*
X590939D01*
X591938Y-142401D01*
Y-143401D01*
X587940D01*
X593938Y-145400D02*
Y-141401D01*
X596937D01*
X597936Y-142401D01*
Y-145400D01*
X603934Y-139402D02*
Y-145400D01*
X600935D01*
X599936Y-144400D01*
Y-142401D01*
X600935Y-141401D01*
X603934D01*
X615931D02*
X612931D01*
X611932Y-142401D01*
Y-144400D01*
X612931Y-145400D01*
X615931D01*
X620929D02*
X618929D01*
X617930Y-144400D01*
Y-142401D01*
X618929Y-141401D01*
X620929D01*
X621929Y-142401D01*
Y-143401D01*
X617930D01*
X623928Y-145400D02*
Y-141401D01*
X626927D01*
X627927Y-142401D01*
Y-145400D01*
X630926Y-140402D02*
Y-141401D01*
X629926D01*
X631925D01*
X630926D01*
Y-144400D01*
X631925Y-145400D01*
X634924Y-141401D02*
Y-145400D01*
Y-143401D01*
X635924Y-142401D01*
X636924Y-141401D01*
X637923D01*
X643921Y-145400D02*
X641922D01*
X640922Y-144400D01*
Y-142401D01*
X641922Y-141401D01*
X643921D01*
X644921Y-142401D01*
Y-143401D01*
X640922D01*
X652918Y-147399D02*
Y-141401D01*
X655918D01*
X656917Y-142401D01*
Y-144400D01*
X655918Y-145400D01*
X652918D01*
X659916D02*
X661916D01*
X662915Y-144400D01*
Y-142401D01*
X661916Y-141401D01*
X659916D01*
X658917Y-142401D01*
Y-144400D01*
X659916Y-145400D01*
X664915D02*
X667914D01*
X668913Y-144400D01*
X667914Y-143401D01*
X665914D01*
X664915Y-142401D01*
X665914Y-141401D01*
X668913D01*
X670913Y-145400D02*
X672912D01*
X671912D01*
Y-141401D01*
X670913D01*
X676911Y-140402D02*
Y-141401D01*
X675911D01*
X677910D01*
X676911D01*
Y-144400D01*
X677910Y-145400D01*
X680909D02*
X682909D01*
X681909D01*
Y-141401D01*
X680909D01*
X686907Y-145400D02*
X688907D01*
X689907Y-144400D01*
Y-142401D01*
X688907Y-141401D01*
X686907D01*
X685908Y-142401D01*
Y-144400D01*
X686907Y-145400D01*
X691906D02*
Y-141401D01*
X694905D01*
X695905Y-142401D01*
Y-145400D01*
X697904D02*
Y-144400D01*
X698904D01*
Y-145400D01*
X697904D01*
X285038Y-155401D02*
X289036D01*
X285038Y-153401D02*
X289036D01*
X297034Y-157400D02*
Y-151402D01*
X300033D01*
X301032Y-152402D01*
Y-154401D01*
X300033Y-155401D01*
X297034D01*
X299033D02*
X301032Y-157400D01*
X304031D02*
X306031D01*
X307031Y-156400D01*
Y-154401D01*
X306031Y-153401D01*
X304031D01*
X303032Y-154401D01*
Y-156400D01*
X304031Y-157400D01*
X309030Y-153401D02*
Y-156400D01*
X310030Y-157400D01*
X313029D01*
Y-153401D01*
X316028Y-152402D02*
Y-153401D01*
X315028D01*
X317027D01*
X316028D01*
Y-156400D01*
X317027Y-157400D01*
X326024D02*
Y-151402D01*
X329023D01*
X330023Y-152402D01*
Y-154401D01*
X329023Y-155401D01*
X326024D01*
X333022Y-153401D02*
X335021D01*
X336021Y-154401D01*
Y-157400D01*
X333022D01*
X332022Y-156400D01*
X333022Y-155401D01*
X336021D01*
X339020Y-152402D02*
Y-153401D01*
X338020D01*
X340020D01*
X339020D01*
Y-156400D01*
X340020Y-157400D01*
X343019Y-151402D02*
Y-157400D01*
Y-154401D01*
X344019Y-153401D01*
X346018D01*
X347018Y-154401D01*
Y-157400D01*
X355015Y-151402D02*
Y-157400D01*
X359014D01*
X364012D02*
X362013D01*
X361013Y-156400D01*
Y-154401D01*
X362013Y-153401D01*
X364012D01*
X365012Y-154401D01*
Y-155401D01*
X361013D01*
X367011Y-157400D02*
Y-153401D01*
X370010D01*
X371010Y-154401D01*
Y-157400D01*
X375009Y-159399D02*
X376008D01*
X377008Y-158400D01*
Y-153401D01*
X374009D01*
X373009Y-154401D01*
Y-156400D01*
X374009Y-157400D01*
X377008D01*
X380007Y-152402D02*
Y-153401D01*
X379007D01*
X381007D01*
X380007D01*
Y-156400D01*
X381007Y-157400D01*
X384005Y-151402D02*
Y-157400D01*
Y-154401D01*
X385005Y-153401D01*
X387005D01*
X388004Y-154401D01*
Y-157400D01*
X396002Y-154401D02*
X400000D01*
X398001Y-152402D02*
Y-156400D01*
X407998Y-151402D02*
X411997D01*
X409997D01*
Y-157400D01*
X414995D02*
X416995D01*
X417995Y-156400D01*
Y-154401D01*
X416995Y-153401D01*
X414995D01*
X413996Y-154401D01*
Y-156400D01*
X414995Y-157400D01*
X420994D02*
X422993D01*
X423993Y-156400D01*
Y-154401D01*
X422993Y-153401D01*
X420994D01*
X419994Y-154401D01*
Y-156400D01*
X420994Y-157400D01*
X425992D02*
X427991D01*
X426992D01*
Y-151402D01*
X425992D01*
X440987Y-152402D02*
X439987Y-151402D01*
X437988D01*
X436988Y-152402D01*
Y-153401D01*
X437988Y-154401D01*
X439987D01*
X440987Y-155401D01*
Y-156400D01*
X439987Y-157400D01*
X437988D01*
X436988Y-156400D01*
X442986Y-157400D02*
X444986D01*
X443986D01*
Y-153401D01*
X442986D01*
X447985D02*
X451984D01*
X447985Y-157400D01*
X451984D01*
X456982D02*
X454983D01*
X453983Y-156400D01*
Y-154401D01*
X454983Y-153401D01*
X456982D01*
X457982Y-154401D01*
Y-155401D01*
X453983D01*
X465979D02*
X469978D01*
X465979Y-153401D02*
X469978D01*
X481974Y-152402D02*
X480974Y-151402D01*
X478975D01*
X477975Y-152402D01*
Y-153401D01*
X478975Y-154401D01*
X480974D01*
X481974Y-155401D01*
Y-156400D01*
X480974Y-157400D01*
X478975D01*
X477975Y-156400D01*
X483973Y-157400D02*
X485973D01*
X484973D01*
Y-151402D01*
X483973D01*
X489971Y-157400D02*
X491971D01*
X492970Y-156400D01*
Y-154401D01*
X491971Y-153401D01*
X489971D01*
X488972Y-154401D01*
Y-156400D01*
X489971Y-157400D01*
X495969Y-152402D02*
Y-153401D01*
X494970D01*
X496969D01*
X495969D01*
Y-156400D01*
X496969Y-157400D01*
X505966D02*
X507965D01*
X506966D01*
Y-151402D01*
X505966D01*
X513964Y-157400D02*
X511964D01*
X510964Y-156400D01*
Y-154401D01*
X511964Y-153401D01*
X513964D01*
X514963Y-154401D01*
Y-155401D01*
X510964D01*
X516962Y-157400D02*
Y-153401D01*
X519962D01*
X520961Y-154401D01*
Y-157400D01*
X524960Y-159399D02*
X525960D01*
X526959Y-158400D01*
Y-153401D01*
X523960D01*
X522961Y-154401D01*
Y-156400D01*
X523960Y-157400D01*
X526959D01*
X529958Y-152402D02*
Y-153401D01*
X528959D01*
X530958D01*
X529958D01*
Y-156400D01*
X530958Y-157400D01*
X533957Y-151402D02*
Y-157400D01*
Y-154401D01*
X534957Y-153401D01*
X536956D01*
X537956Y-154401D01*
Y-157400D01*
X546953Y-153401D02*
X548952D01*
X549952Y-154401D01*
Y-157400D01*
X546953D01*
X545953Y-156400D01*
X546953Y-155401D01*
X549952D01*
X551951Y-157400D02*
X554950D01*
X555950Y-156400D01*
X554950Y-155401D01*
X552951D01*
X551951Y-154401D01*
X552951Y-153401D01*
X555950D01*
X567946Y-151402D02*
Y-157400D01*
X564947D01*
X563947Y-156400D01*
Y-154401D01*
X564947Y-153401D01*
X567946D01*
X572944Y-157400D02*
X570945D01*
X569945Y-156400D01*
Y-154401D01*
X570945Y-153401D01*
X572944D01*
X573944Y-154401D01*
Y-155401D01*
X569945D01*
X576943Y-157400D02*
Y-152402D01*
Y-154401D01*
X575944D01*
X577943D01*
X576943D01*
Y-152402D01*
X577943Y-151402D01*
X580942Y-157400D02*
X582941D01*
X581942D01*
Y-153401D01*
X580942D01*
X585940Y-157400D02*
Y-153401D01*
X588939D01*
X589939Y-154401D01*
Y-157400D01*
X594937D02*
X592938D01*
X591938Y-156400D01*
Y-154401D01*
X592938Y-153401D01*
X594937D01*
X595937Y-154401D01*
Y-155401D01*
X591938D01*
X601935Y-151402D02*
Y-157400D01*
X598936D01*
X597936Y-156400D01*
Y-154401D01*
X598936Y-153401D01*
X601935D01*
X609932Y-157400D02*
X611932D01*
X610932D01*
Y-153401D01*
X609932D01*
X614931Y-157400D02*
Y-153401D01*
X617930D01*
X618929Y-154401D01*
Y-157400D01*
X627927Y-152402D02*
Y-153401D01*
X626927D01*
X628926D01*
X627927D01*
Y-156400D01*
X628926Y-157400D01*
X631925Y-151402D02*
Y-157400D01*
Y-154401D01*
X632925Y-153401D01*
X634924D01*
X635924Y-154401D01*
Y-157400D01*
X640922D02*
X638923D01*
X637923Y-156400D01*
Y-154401D01*
X638923Y-153401D01*
X640922D01*
X641922Y-154401D01*
Y-155401D01*
X637923D01*
X649920Y-157400D02*
Y-151402D01*
X652918D01*
X653918Y-152402D01*
Y-154401D01*
X652918Y-155401D01*
X649920D01*
X659916Y-152402D02*
X658917Y-151402D01*
X656917D01*
X655918Y-152402D01*
Y-156400D01*
X656917Y-157400D01*
X658917D01*
X659916Y-156400D01*
X661916Y-151402D02*
Y-157400D01*
X664915D01*
X665914Y-156400D01*
Y-155401D01*
X664915Y-154401D01*
X661916D01*
X664915D01*
X665914Y-153401D01*
Y-152402D01*
X664915Y-151402D01*
X661916D01*
X673912Y-157400D02*
X675911D01*
X674911D01*
Y-151402D01*
X673912D01*
X679910Y-153401D02*
X681909D01*
X682909Y-154401D01*
Y-157400D01*
X679910D01*
X678910Y-156400D01*
X679910Y-155401D01*
X682909D01*
X684908Y-153401D02*
Y-156400D01*
X685908Y-157400D01*
X688907D01*
Y-158400D01*
X687907Y-159399D01*
X686907D01*
X688907Y-157400D02*
Y-153401D01*
X691906Y-157400D02*
X693905D01*
X694905Y-156400D01*
Y-154401D01*
X693905Y-153401D01*
X691906D01*
X690906Y-154401D01*
Y-156400D01*
X691906Y-157400D01*
X696904Y-153401D02*
Y-156400D01*
X697904Y-157400D01*
X700903D01*
Y-153401D01*
X703902Y-152402D02*
Y-153401D01*
X702902D01*
X704902D01*
X703902D01*
Y-156400D01*
X704902Y-157400D01*
D49*
X41000Y36000D02*
Y39332D01*
X42666Y40998D01*
X44332Y39332D01*
Y36000D01*
Y38499D01*
X41000D01*
X-41000Y36000D02*
Y39332D01*
X-39334Y40998D01*
X-37668Y39332D01*
Y36000D01*
Y38499D01*
X-41000D01*
Y-136000D02*
Y-132668D01*
X-39334Y-131002D01*
X-37668Y-132668D01*
Y-136000D01*
Y-133501D01*
X-41000D01*
X41000Y-136000D02*
Y-132668D01*
X42666Y-131002D01*
X44332Y-132668D01*
Y-136000D01*
Y-133501D01*
X41000D01*
X9550Y-122002D02*
Y-127000D01*
X12049D01*
X12882Y-126167D01*
Y-125334D01*
X12049Y-124501D01*
X9550D01*
X12049D01*
X12882Y-123668D01*
Y-122835D01*
X12049Y-122002D01*
X9550D01*
X-9550D02*
Y-127000D01*
X-7051D01*
X-6218Y-126167D01*
Y-125334D01*
X-7051Y-124501D01*
X-9550D01*
X-7051D01*
X-6218Y-123668D01*
Y-122835D01*
X-7051Y-122002D01*
X-9550D01*
X-10968Y-133235D02*
X-11801Y-132402D01*
X-13467D01*
X-14300Y-133235D01*
Y-136567D01*
X-13467Y-137400D01*
X-11801D01*
X-10968Y-136567D01*
X17632Y-133235D02*
X16799Y-132402D01*
X15133D01*
X14300Y-133235D01*
Y-136567D01*
X15133Y-137400D01*
X16799D01*
X17632Y-136567D01*
X45000Y-115002D02*
Y-120000D01*
X47499D01*
X48332Y-119167D01*
Y-115835D01*
X47499Y-115002D01*
X45000D01*
Y-75002D02*
Y-80000D01*
X47499D01*
X48332Y-79167D01*
Y-75835D01*
X47499Y-75002D01*
X45000D01*
Y-85002D02*
Y-90000D01*
X47499D01*
X48332Y-89167D01*
Y-85835D01*
X47499Y-85002D01*
X45000D01*
Y-95002D02*
Y-100000D01*
X47499D01*
X48332Y-99167D01*
Y-95835D01*
X47499Y-95002D01*
X45000D01*
Y-105002D02*
Y-110000D01*
X47499D01*
X48332Y-109167D01*
Y-105835D01*
X47499Y-105002D01*
X45000D01*
Y-65002D02*
Y-70000D01*
X47499D01*
X48332Y-69167D01*
Y-65835D01*
X47499Y-65002D01*
X45000D01*
Y-55002D02*
Y-60000D01*
X47499D01*
X48332Y-59167D01*
Y-55835D01*
X47499Y-55002D01*
X45000D01*
Y-45002D02*
Y-50000D01*
X47499D01*
X48332Y-49167D01*
Y-45835D01*
X47499Y-45002D01*
X45000D01*
Y-35002D02*
Y-40000D01*
X47499D01*
X48332Y-39167D01*
Y-35835D01*
X47499Y-35002D01*
X45000D01*
Y24998D02*
Y20000D01*
X47499D01*
X48332Y20833D01*
Y24165D01*
X47499Y24998D01*
X45000D01*
Y14998D02*
Y10000D01*
X47499D01*
X48332Y10833D01*
Y14165D01*
X47499Y14998D01*
X45000D01*
Y4998D02*
Y0D01*
X47499D01*
X48332Y833D01*
Y4165D01*
X47499Y4998D01*
X45000D01*
Y-5002D02*
Y-10000D01*
X47499D01*
X48332Y-9167D01*
Y-5835D01*
X47499Y-5002D01*
X45000D01*
Y-15002D02*
Y-20000D01*
X47499D01*
X48332Y-19167D01*
Y-15835D01*
X47499Y-15002D01*
X45000D01*
Y-25002D02*
Y-30000D01*
X47499D01*
X48332Y-29167D01*
Y-25835D01*
X47499Y-25002D01*
X45000D01*
X-45000Y-115002D02*
Y-120000D01*
X-42501D01*
X-41668Y-119167D01*
Y-115835D01*
X-42501Y-115002D01*
X-45000D01*
Y-75002D02*
Y-80000D01*
X-42501D01*
X-41668Y-79167D01*
Y-75835D01*
X-42501Y-75002D01*
X-45000D01*
Y-85002D02*
Y-90000D01*
X-42501D01*
X-41668Y-89167D01*
Y-85835D01*
X-42501Y-85002D01*
X-45000D01*
Y-95002D02*
Y-100000D01*
X-42501D01*
X-41668Y-99167D01*
Y-95835D01*
X-42501Y-95002D01*
X-45000D01*
Y-105002D02*
Y-110000D01*
X-42501D01*
X-41668Y-109167D01*
Y-105835D01*
X-42501Y-105002D01*
X-45000D01*
Y-65002D02*
Y-70000D01*
X-42501D01*
X-41668Y-69167D01*
Y-65835D01*
X-42501Y-65002D01*
X-45000D01*
Y-55002D02*
Y-60000D01*
X-42501D01*
X-41668Y-59167D01*
Y-55835D01*
X-42501Y-55002D01*
X-45000D01*
Y-45002D02*
Y-50000D01*
X-42501D01*
X-41668Y-49167D01*
Y-45835D01*
X-42501Y-45002D01*
X-45000D01*
Y-35002D02*
Y-40000D01*
X-42501D01*
X-41668Y-39167D01*
Y-35835D01*
X-42501Y-35002D01*
X-45000D01*
Y24998D02*
Y20000D01*
X-42501D01*
X-41668Y20833D01*
Y24165D01*
X-42501Y24998D01*
X-45000D01*
Y14998D02*
Y10000D01*
X-42501D01*
X-41668Y10833D01*
Y14165D01*
X-42501Y14998D01*
X-45000D01*
Y4998D02*
Y0D01*
X-42501D01*
X-41668Y833D01*
Y4165D01*
X-42501Y4998D01*
X-45000D01*
Y-5002D02*
Y-10000D01*
X-42501D01*
X-41668Y-9167D01*
Y-5835D01*
X-42501Y-5002D01*
X-45000D01*
Y-15002D02*
Y-20000D01*
X-42501D01*
X-41668Y-19167D01*
Y-15835D01*
X-42501Y-15002D01*
X-45000D01*
Y-25002D02*
Y-30000D01*
X-42501D01*
X-41668Y-29167D01*
Y-25835D01*
X-42501Y-25002D01*
X-45000D01*
X39532Y-40968D02*
X36200D01*
Y-45967D01*
X39532D01*
X36200Y-43468D02*
X37866D01*
X39532Y-43735D02*
X36200D01*
Y-48733D01*
X39532D01*
X36200Y-46234D02*
X37866D01*
X39532Y-46502D02*
X36200D01*
Y-51500D01*
X39532D01*
X36200Y-49001D02*
X37866D01*
X-16868Y-17002D02*
X-20200D01*
Y-22000D01*
X-16868D01*
X-20200Y-19501D02*
X-18534D01*
X-13968Y-20002D02*
X-17300D01*
Y-25000D01*
X-13968D01*
X-17300Y-22501D02*
X-15634D01*
X-6168Y-110302D02*
X-9500D01*
Y-115300D01*
X-6168D01*
X-9500Y-112801D02*
X-7834D01*
X-6168Y-100302D02*
X-9500D01*
Y-105300D01*
X-6168D01*
X-9500Y-102801D02*
X-7834D01*
X-1568Y-111302D02*
X-4900D01*
Y-116300D01*
X-1568D01*
X-4900Y-113801D02*
X-3234D01*
X-1568Y-114402D02*
X-4900D01*
Y-119400D01*
X-1568D01*
X-4900Y-116901D02*
X-3234D01*
X32332Y-59102D02*
X29000D01*
Y-64100D01*
X32332D01*
X29000Y-61601D02*
X30666D01*
X30132Y-59102D02*
X26800D01*
Y-64100D01*
X30132D01*
X26800Y-61601D02*
X28466D01*
X32332Y-56802D02*
X29000D01*
Y-61800D01*
X32332D01*
X29000Y-59301D02*
X30666D01*
X34632Y-56802D02*
X31300D01*
Y-61800D01*
X34632D01*
X31300Y-59301D02*
X32966D01*
X30132Y-56802D02*
X26800D01*
Y-61800D01*
X30132D01*
X26800Y-59301D02*
X28466D01*
X10982Y-137402D02*
X7650D01*
Y-142400D01*
X10982D01*
X7650Y-139901D02*
X9316D01*
X7832Y-137402D02*
X4500D01*
Y-142400D01*
X7832D01*
X4500Y-139901D02*
X6166D01*
X4682Y-137402D02*
X1350D01*
Y-142400D01*
X4682D01*
X1350Y-139901D02*
X3016D01*
X1532Y-137402D02*
X-1800D01*
Y-142400D01*
X1532D01*
X-1800Y-139901D02*
X-134D01*
X-1618Y-137402D02*
X-4950D01*
Y-142400D01*
X-1618D01*
X-4950Y-139901D02*
X-3284D01*
X-4768Y-137402D02*
X-8100D01*
Y-142400D01*
X-4768D01*
X-8100Y-139901D02*
X-6434D01*
X10982Y-133502D02*
X7650D01*
Y-138500D01*
X10982D01*
X7650Y-136001D02*
X9316D01*
X7832Y-133502D02*
X4500D01*
Y-138500D01*
X7832D01*
X4500Y-136001D02*
X6166D01*
X4682Y-133502D02*
X1350D01*
Y-138500D01*
X4682D01*
X1350Y-136001D02*
X3016D01*
X1532Y-133502D02*
X-1800D01*
Y-138500D01*
X1532D01*
X-1800Y-136001D02*
X-134D01*
X-1618Y-133502D02*
X-4950D01*
Y-138500D01*
X-1618D01*
X-4950Y-136001D02*
X-3284D01*
X-4768Y-133502D02*
X-8100D01*
Y-138500D01*
X-4768D01*
X-8100Y-136001D02*
X-6434D01*
X-4768Y-129602D02*
X-8100D01*
Y-134600D01*
X-4768D01*
X-8100Y-132101D02*
X-6434D01*
X-1618Y-129602D02*
X-4950D01*
Y-134600D01*
X-1618D01*
X-4950Y-132101D02*
X-3284D01*
X1532Y-129602D02*
X-1800D01*
Y-134600D01*
X1532D01*
X-1800Y-132101D02*
X-134D01*
X4682Y-129602D02*
X1350D01*
Y-134600D01*
X4682D01*
X1350Y-132101D02*
X3016D01*
X7832Y-129602D02*
X4500D01*
Y-134600D01*
X7832D01*
X4500Y-132101D02*
X6166D01*
X10982Y-129602D02*
X7650D01*
Y-134600D01*
X10982D01*
X7650Y-132101D02*
X9316D01*
X532Y-117002D02*
X-2800D01*
Y-122000D01*
X532D01*
X-2800Y-119501D02*
X-1134D01*
X8532Y-88202D02*
X5200D01*
Y-93200D01*
X8532D01*
X5200Y-90701D02*
X6866D01*
X3532Y-117002D02*
X200D01*
Y-122000D01*
X3532D01*
X200Y-119501D02*
X1866D01*
X5532Y-88202D02*
X2200D01*
Y-93200D01*
X5532D01*
X2200Y-90701D02*
X3866D01*
X-20168Y-22429D02*
X-23500D01*
Y-27428D01*
X-20168D01*
X-23500Y-24928D02*
X-21834D01*
X-20168Y-30303D02*
X-23500D01*
Y-35302D01*
X-20168D01*
X-23500Y-32802D02*
X-21834D01*
X-20168Y-14555D02*
X-23500D01*
Y-19554D01*
X-20168D01*
X-23500Y-17054D02*
X-21834D01*
X23332Y-46602D02*
X20000D01*
Y-51600D01*
X23332D01*
X20000Y-49101D02*
X21666D01*
X35932Y-26302D02*
X32600D01*
Y-31300D01*
X35932D01*
X32600Y-28801D02*
X34266D01*
X35932Y-10402D02*
X32600D01*
Y-15400D01*
X35932D01*
X32600Y-12901D02*
X34266D01*
X20632Y-46602D02*
X17300D01*
Y-51600D01*
X20632D01*
X17300Y-49101D02*
X18966D01*
X38432Y-26302D02*
X35100D01*
Y-31300D01*
X38432D01*
X35100Y-28801D02*
X36766D01*
X-25268Y-2702D02*
X-28600D01*
Y-7700D01*
X-25268D01*
X-28600Y-5201D02*
X-26934D01*
X-21318Y-2752D02*
X-24650D01*
Y-7750D01*
X-21318D01*
X-24650Y-5251D02*
X-22984D01*
X-20668Y-6681D02*
X-24000D01*
Y-11680D01*
X-20668D01*
X-24000Y-9180D02*
X-22334D01*
X-19668Y-92802D02*
X-23000D01*
Y-97800D01*
X-19668D01*
X-23000Y-95301D02*
X-21334D01*
X19632Y-83202D02*
X16300D01*
Y-88200D01*
X19632D01*
X16300Y-85701D02*
X17966D01*
X16432Y-77502D02*
X13100D01*
Y-82500D01*
X16432D01*
X13100Y-80001D02*
X14766D01*
X23332Y-54102D02*
X20000D01*
Y-59100D01*
X23332D01*
X20000Y-56601D02*
X21666D01*
X20632Y-54102D02*
X17300D01*
Y-59100D01*
X20632D01*
X17300Y-56601D02*
X18966D01*
X39832Y-54802D02*
X36500D01*
Y-59800D01*
X39832D01*
X36500Y-57301D02*
X38166D01*
X39832Y-57502D02*
X36500D01*
Y-62500D01*
X39832D01*
X36500Y-60001D02*
X38166D01*
X-17387Y-70262D02*
X-20719D01*
Y-75261D01*
X-17387D01*
X-20719Y-72761D02*
X-19053D01*
X-17387Y-72821D02*
X-20719D01*
Y-77819D01*
X-17387D01*
X-20719Y-75320D02*
X-19053D01*
X-31568Y-110102D02*
X-34900D01*
Y-115100D01*
X-31568D01*
X-34900Y-112601D02*
X-33234D01*
X-29868Y-108402D02*
X-33200D01*
Y-113400D01*
X-29868D01*
X-33200Y-110901D02*
X-31534D01*
X21532Y-96002D02*
X18200D01*
Y-101000D01*
X21532D01*
X18200Y-98501D02*
X19866D01*
X32432Y-85602D02*
X29100D01*
Y-90600D01*
X32432D01*
X29100Y-88101D02*
X30766D01*
X27832Y-132018D02*
X24500D01*
Y-137016D01*
X27832D01*
X24500Y-134517D02*
X26166D01*
X-21168Y-132018D02*
X-24500D01*
Y-137016D01*
X-21168D01*
X-24500Y-134517D02*
X-22834D01*
X32785Y-136202D02*
X29453D01*
Y-141200D01*
X32785D01*
X29453Y-138701D02*
X31119D01*
X22880Y-136171D02*
X19547D01*
Y-141169D01*
X22880D01*
X19547Y-138670D02*
X21213D01*
X-26120Y-136140D02*
X-29453D01*
Y-141139D01*
X-26120D01*
X-29453Y-138639D02*
X-27787D01*
X-16215Y-136171D02*
X-19547D01*
Y-141169D01*
X-16215D01*
X-19547Y-138670D02*
X-17881D01*
X33232Y-42302D02*
X29900D01*
Y-47300D01*
X33232D01*
X29900Y-44801D02*
X31566D01*
X30132Y-42302D02*
X26800D01*
Y-47300D01*
X30132D01*
X26800Y-44801D02*
X28466D01*
X31632Y-43902D02*
X28300D01*
Y-48900D01*
X31632D01*
X28300Y-46401D02*
X29966D01*
X-25318Y-61802D02*
X-28650D01*
Y-66800D01*
X-25318D01*
X-28650Y-64301D02*
X-26984D01*
X-21993Y-61802D02*
X-25325D01*
Y-66800D01*
X-21993D01*
X-25325Y-64301D02*
X-23659D01*
X-18668Y-61802D02*
X-22000D01*
Y-66800D01*
X-18668D01*
X-22000Y-64301D02*
X-20334D01*
X-18668Y-66002D02*
X-22000D01*
Y-71000D01*
X-18668D01*
X-22000Y-68501D02*
X-20334D01*
X-31968Y-70202D02*
X-35300D01*
Y-75200D01*
X-31968D01*
X-35300Y-72701D02*
X-33634D01*
X-31968Y-66002D02*
X-35300D01*
Y-71000D01*
X-31968D01*
X-35300Y-68501D02*
X-33634D01*
X-31968Y-61802D02*
X-35300D01*
Y-66800D01*
X-31968D01*
X-35300Y-64301D02*
X-33634D01*
X-28643Y-61802D02*
X-31975D01*
Y-66800D01*
X-28643D01*
X-31975Y-64301D02*
X-30309D01*
X-28968Y26198D02*
X-32300D01*
Y21200D01*
X-28968D01*
X-32300Y23699D02*
X-30634D01*
X-35568Y-602D02*
X-38900D01*
Y-5600D01*
X-35568D01*
X-38900Y-3101D02*
X-37234D01*
X39532Y-38202D02*
X36200D01*
Y-43200D01*
X39532D01*
X36200Y-40701D02*
X37866D01*
X-12748Y-105402D02*
X-16080D01*
Y-110400D01*
X-12748D01*
X-16080Y-107901D02*
X-14414D01*
X-6288Y-105402D02*
X-9620D01*
Y-110400D01*
X-6288D01*
X-9620Y-107901D02*
X-7954D01*
X8432Y-117002D02*
X5100D01*
Y-122000D01*
X8432D01*
X5100Y-119501D02*
X6766D01*
X6632Y-80439D02*
X3300D01*
Y-85438D01*
X6632D01*
X3300Y-82939D02*
X4966D01*
X32Y-80439D02*
X-3300D01*
Y-85438D01*
X32D01*
X-3300Y-82939D02*
X-1634D01*
X-11368Y-49702D02*
X-14700D01*
Y-54700D01*
X-11368D01*
X-14700Y-52201D02*
X-13034D01*
X-8568Y-49702D02*
X-11900D01*
Y-54700D01*
X-8568D01*
X-11900Y-52201D02*
X-10234D01*
X3432Y-49702D02*
X100D01*
Y-54700D01*
X3432D01*
X100Y-52201D02*
X1766D01*
X3432Y-53002D02*
X100D01*
Y-58000D01*
X3432D01*
X100Y-55501D02*
X1766D01*
X5982Y-49702D02*
X2650D01*
Y-54700D01*
X5982D01*
X2650Y-52201D02*
X4316D01*
X5982Y-53002D02*
X2650D01*
Y-58000D01*
X5982D01*
X2650Y-55501D02*
X4316D01*
X8532Y-49702D02*
X5200D01*
Y-54700D01*
X8532D01*
X5200Y-52201D02*
X6866D01*
X-8568Y-53002D02*
X-11900D01*
Y-58000D01*
X-8568D01*
X-11900Y-55501D02*
X-10234D01*
X8532Y-53002D02*
X5200D01*
Y-58000D01*
X8532D01*
X5200Y-55501D02*
X6866D01*
X3432Y-97302D02*
X100D01*
Y-102300D01*
X3432D01*
X100Y-99801D02*
X1766D01*
X3432Y-100002D02*
X100D01*
Y-105000D01*
X3432D01*
X100Y-102501D02*
X1766D01*
X12632Y-100368D02*
X9300D01*
Y-105367D01*
X12632D01*
X9300Y-102867D02*
X10966D01*
X9832Y-100368D02*
X6500D01*
Y-105367D01*
X9832D01*
X6500Y-102867D02*
X8166D01*
X12632Y-103435D02*
X9300D01*
Y-108433D01*
X12632D01*
X9300Y-105934D02*
X10966D01*
X9832Y-103435D02*
X6500D01*
Y-108433D01*
X9832D01*
X6500Y-105934D02*
X8166D01*
X9832Y-106502D02*
X6500D01*
Y-111500D01*
X9832D01*
X6500Y-109001D02*
X8166D01*
X12632Y-106502D02*
X9300D01*
Y-111500D01*
X12632D01*
X9300Y-109001D02*
X10966D01*
X12632Y-97302D02*
X9300D01*
Y-102300D01*
X12632D01*
X9300Y-99801D02*
X10966D01*
X7032Y-106502D02*
X3700D01*
Y-111500D01*
X7032D01*
X3700Y-109001D02*
X5366D01*
X9832Y-97302D02*
X6500D01*
Y-102300D01*
X9832D01*
X6500Y-99801D02*
X8166D01*
X-5268Y-32602D02*
X-8600D01*
Y-37600D01*
X-5268D01*
X-8600Y-35101D02*
X-6934D01*
X-668Y-37202D02*
X-4000D01*
Y-42200D01*
X-668D01*
X-4000Y-39701D02*
X-2334D01*
X-2968Y-34902D02*
X-6300D01*
Y-39900D01*
X-2968D01*
X-6300Y-37401D02*
X-4634D01*
X-7968Y-27902D02*
X-11300D01*
Y-32900D01*
X-7968D01*
X-11300Y-30401D02*
X-9634D01*
X-11068Y-24702D02*
X-14400D01*
Y-29700D01*
X-11068D01*
X-14400Y-27201D02*
X-12734D01*
X2432Y-1702D02*
X-900D01*
Y-6700D01*
X2432D01*
X-900Y-4201D02*
X766D01*
X7432Y3298D02*
X4100D01*
Y-1700D01*
X7432D01*
X4100Y799D02*
X5766D01*
X4932Y798D02*
X1600D01*
Y-4200D01*
X4932D01*
X1600Y-1701D02*
X3266D01*
X14932Y10798D02*
X11600D01*
Y5800D01*
X14932D01*
X11600Y8299D02*
X13266D01*
X17432Y13298D02*
X14100D01*
Y8300D01*
X17432D01*
X14100Y10799D02*
X15766D01*
X12432Y8298D02*
X9100D01*
Y3300D01*
X12432D01*
X9100Y5799D02*
X10766D01*
X9932Y5798D02*
X6600D01*
Y800D01*
X9932D01*
X6600Y3299D02*
X8266D01*
X24932Y20798D02*
X21600D01*
Y15800D01*
X24932D01*
X21600Y18299D02*
X23266D01*
X27432Y23298D02*
X24100D01*
Y18300D01*
X27432D01*
X24100Y20799D02*
X25766D01*
X34932Y26198D02*
X31600D01*
Y21200D01*
X34932D01*
X31600Y23699D02*
X33266D01*
X22432Y18298D02*
X19100D01*
Y13300D01*
X22432D01*
X19100Y15799D02*
X20766D01*
X19932Y15798D02*
X16600D01*
Y10800D01*
X19932D01*
X16600Y13299D02*
X18266D01*
X21132Y10098D02*
X17800D01*
Y5100D01*
X21132D01*
X17800Y7599D02*
X19466D01*
X23632Y12598D02*
X20300D01*
Y7600D01*
X23632D01*
X20300Y10099D02*
X21966D01*
X26132Y15098D02*
X22800D01*
Y10100D01*
X26132D01*
X22800Y12599D02*
X24466D01*
X18632Y7598D02*
X15300D01*
Y2600D01*
X18632D01*
X15300Y5099D02*
X16966D01*
X16132Y5098D02*
X12800D01*
Y100D01*
X16132D01*
X12800Y2599D02*
X14466D01*
X11132Y98D02*
X7800D01*
Y-4900D01*
X11132D01*
X7800Y-2401D02*
X9466D01*
X8632Y-2402D02*
X5300D01*
Y-7400D01*
X8632D01*
X5300Y-4901D02*
X6966D01*
X6132Y-4902D02*
X2800D01*
Y-9900D01*
X6132D01*
X2800Y-7401D02*
X4466D01*
X13632Y2598D02*
X10300D01*
Y-2400D01*
X13632D01*
X10300Y99D02*
X11966D01*
X-168Y-9402D02*
X-3500D01*
Y-14400D01*
X-168D01*
X-3500Y-11901D02*
X-1834D01*
X-4468Y-9402D02*
X-7800D01*
Y-14400D01*
X-4468D01*
X-7800Y-11901D02*
X-6134D01*
X3632Y-7402D02*
X300D01*
Y-12400D01*
X3632D01*
X300Y-9901D02*
X1966D01*
X-9968Y-17202D02*
X-13300D01*
Y-22200D01*
X-9968D01*
X-13300Y-19701D02*
X-11634D01*
X-7468Y-19702D02*
X-10800D01*
Y-24700D01*
X-7468D01*
X-10800Y-22201D02*
X-9134D01*
X-4968Y-22202D02*
X-8300D01*
Y-27200D01*
X-4968D01*
X-8300Y-24701D02*
X-6634D01*
X-12468Y-14702D02*
X-15800D01*
Y-19700D01*
X-12468D01*
X-15800Y-17201D02*
X-14134D01*
X-14968Y-12202D02*
X-18300D01*
Y-17200D01*
X-14968D01*
X-18300Y-14701D02*
X-16634D01*
X32Y-27202D02*
X-3300D01*
Y-32200D01*
X32D01*
X-3300Y-29701D02*
X-1634D01*
X2532Y-29702D02*
X-800D01*
Y-34700D01*
X2532D01*
X-800Y-32201D02*
X866D01*
X-2468Y-24702D02*
X-5800D01*
Y-29700D01*
X-2468D01*
X-5800Y-27201D02*
X-4134D01*
X10032Y-37202D02*
X6700D01*
Y-42200D01*
X10032D01*
X6700Y-39701D02*
X8366D01*
X7532Y-34702D02*
X4200D01*
Y-39700D01*
X7532D01*
X4200Y-37201D02*
X5866D01*
X5032Y-32202D02*
X1700D01*
Y-37200D01*
X5032D01*
X1700Y-34701D02*
X3366D01*
X-17368Y-9402D02*
X-20700D01*
Y-14400D01*
X-17368D01*
X-20700Y-11901D02*
X-19034D01*
X-13068Y-9402D02*
X-16400D01*
Y-14400D01*
X-13068D01*
X-16400Y-11901D02*
X-14734D01*
X-8768Y-9402D02*
X-12100D01*
Y-14400D01*
X-8768D01*
X-12100Y-11901D02*
X-10434D01*
X-38268Y-2D02*
X-41600D01*
Y-5000D01*
X-38268D01*
X-41600Y-2501D02*
X-39934D01*
X-8668Y-4202D02*
X-12000D01*
Y-9200D01*
X-8668D01*
X-12000Y-6701D02*
X-10334D01*
X-4368Y-4202D02*
X-7700D01*
Y-9200D01*
X-4368D01*
X-7700Y-6701D02*
X-6034D01*
X-68Y-4202D02*
X-3400D01*
Y-9200D01*
X-68D01*
X-3400Y-6701D02*
X-1734D01*
X-12968Y-4202D02*
X-16300D01*
Y-9200D01*
X-12968D01*
X-16300Y-6701D02*
X-14634D01*
X-17368Y-4202D02*
X-20700D01*
Y-9200D01*
X-17368D01*
X-20700Y-6701D02*
X-19034D01*
X-17368Y-302D02*
X-20700D01*
Y-5300D01*
X-17368D01*
X-20700Y-2801D02*
X-19034D01*
X-17368Y3598D02*
X-20700D01*
Y-1400D01*
X-17368D01*
X-20700Y1099D02*
X-19034D01*
X-17368Y7498D02*
X-20700D01*
Y2500D01*
X-17368D01*
X-20700Y4999D02*
X-19034D01*
X-17368Y16098D02*
X-20700D01*
Y11100D01*
X-17368D01*
X-20700Y13599D02*
X-19034D01*
X-17368Y19198D02*
X-20700D01*
Y14200D01*
X-17368D01*
X-20700Y16699D02*
X-19034D01*
X-17368Y11398D02*
X-20700D01*
Y6400D01*
X-17368D01*
X-20700Y8899D02*
X-19034D01*
X22232Y-9802D02*
X18900D01*
Y-14800D01*
X22232D01*
X18900Y-12301D02*
X20566D01*
X22232Y-17602D02*
X18900D01*
Y-22600D01*
X22232D01*
X18900Y-20101D02*
X20566D01*
X22232Y-13702D02*
X18900D01*
Y-18700D01*
X22232D01*
X18900Y-16201D02*
X20566D01*
X22232Y-5902D02*
X18900D01*
Y-10900D01*
X22232D01*
X18900Y-8401D02*
X20566D01*
X22232Y-2002D02*
X18900D01*
Y-7000D01*
X22232D01*
X18900Y-4501D02*
X20566D01*
X22232Y1898D02*
X18900D01*
Y-3100D01*
X22232D01*
X18900Y-601D02*
X20566D01*
X22232Y5798D02*
X18900D01*
Y800D01*
X22232D01*
X18900Y3299D02*
X20566D01*
X22232Y-33202D02*
X18900D01*
Y-38200D01*
X22232D01*
X18900Y-35701D02*
X20566D01*
X22232Y-37102D02*
X18900D01*
Y-42100D01*
X22232D01*
X18900Y-39601D02*
X20566D01*
X22232Y-29302D02*
X18900D01*
Y-34300D01*
X22232D01*
X18900Y-31801D02*
X20566D01*
X22232Y-25402D02*
X18900D01*
Y-30400D01*
X22232D01*
X18900Y-27901D02*
X20566D01*
X22232Y-21502D02*
X18900D01*
Y-26500D01*
X22232D01*
X18900Y-24001D02*
X20566D01*
X20732Y26198D02*
X17400D01*
Y21200D01*
X20732D01*
X17400Y23699D02*
X19066D01*
X24282Y26198D02*
X20950D01*
Y21200D01*
X24282D01*
X20950Y23699D02*
X22616D01*
X31382Y26198D02*
X28050D01*
Y21200D01*
X31382D01*
X28050Y23699D02*
X29716D01*
X27832Y26198D02*
X24500D01*
Y21200D01*
X27832D01*
X24500Y23699D02*
X26166D01*
X2982Y26198D02*
X-350D01*
Y21200D01*
X2982D01*
X-350Y23699D02*
X1316D01*
X10082Y26198D02*
X6750D01*
Y21200D01*
X10082D01*
X6750Y23699D02*
X8416D01*
X17182Y26198D02*
X13850D01*
Y21200D01*
X17182D01*
X13850Y23699D02*
X15516D01*
X13632Y26198D02*
X10300D01*
Y21200D01*
X13632D01*
X10300Y23699D02*
X11966D01*
X38482Y26198D02*
X35150D01*
Y21200D01*
X38482D01*
X35150Y23699D02*
X36816D01*
X-18318Y26198D02*
X-21650D01*
Y21200D01*
X-18318D01*
X-21650Y23699D02*
X-19984D01*
X-4118Y26198D02*
X-7450D01*
Y21200D01*
X-4118D01*
X-7450Y23699D02*
X-5784D01*
X-11218Y26198D02*
X-14550D01*
Y21200D01*
X-11218D01*
X-14550Y23699D02*
X-12884D01*
X-21868Y26198D02*
X-25200D01*
Y21200D01*
X-21868D01*
X-25200Y23699D02*
X-23534D01*
X-25418Y26198D02*
X-28750D01*
Y21200D01*
X-25418D01*
X-28750Y23699D02*
X-27084D01*
X-3818Y4898D02*
X-7150D01*
Y-100D01*
X-3818D01*
X-7150Y2399D02*
X-5484D01*
X6532Y26198D02*
X3200D01*
Y21200D01*
X6532D01*
X3200Y23699D02*
X4866D01*
X-568Y26198D02*
X-3900D01*
Y21200D01*
X-568D01*
X-3900Y23699D02*
X-2234D01*
X-7668Y26198D02*
X-11000D01*
Y21200D01*
X-7668D01*
X-11000Y23699D02*
X-9334D01*
X-14768Y26198D02*
X-18100D01*
Y21200D01*
X-14768D01*
X-18100Y23699D02*
X-16434D01*
X42532Y-79402D02*
X39200D01*
Y-84400D01*
X42532D01*
X39200Y-81901D02*
X40866D01*
X42532Y-90202D02*
X39200D01*
Y-95200D01*
X42532D01*
X39200Y-92701D02*
X40866D01*
X42532Y-98902D02*
X39200D01*
Y-103900D01*
X42532D01*
X39200Y-101401D02*
X40866D01*
X9732Y19198D02*
X6400D01*
Y14200D01*
X9732D01*
X6400Y16699D02*
X8066D01*
X-3818Y19198D02*
X-7150D01*
Y14200D01*
X-3818D01*
X-7150Y16699D02*
X-5484D01*
X42532Y-110102D02*
X39200D01*
Y-115100D01*
X42532D01*
X39200Y-112601D02*
X40866D01*
X3232Y12398D02*
X-100D01*
Y7400D01*
X3232D01*
X-100Y9899D02*
X1566D01*
X37632Y-113302D02*
X34300D01*
Y-118300D01*
X37632D01*
X34300Y-115801D02*
X35966D01*
X40132Y-115902D02*
X36800D01*
Y-120900D01*
X40132D01*
X36800Y-118401D02*
X38466D01*
X35032Y-115902D02*
X31700D01*
Y-120900D01*
X35032D01*
X31700Y-118401D02*
X33366D01*
X-32468Y-124322D02*
X-35800D01*
Y-129320D01*
X-32468D01*
X-35800Y-126821D02*
X-34134D01*
X-11768Y-116335D02*
X-15100D01*
Y-121333D01*
X-11768D01*
X-15100Y-118834D02*
X-13434D01*
X-11768Y-120168D02*
X-15100D01*
Y-125167D01*
X-11768D01*
X-15100Y-122668D02*
X-13434D01*
X-15368Y-124002D02*
X-18700D01*
Y-129000D01*
X-15368D01*
X-18700Y-126501D02*
X-17034D01*
X-15368Y-116335D02*
X-18700D01*
Y-121333D01*
X-15368D01*
X-18700Y-118834D02*
X-17034D01*
X-8168Y-116335D02*
X-11500D01*
Y-121333D01*
X-8168D01*
X-11500Y-118834D02*
X-9834D01*
X-4968Y-92702D02*
X-8300D01*
Y-97700D01*
X-4968D01*
X-8300Y-95201D02*
X-6634D01*
X-1068Y-92702D02*
X-4400D01*
Y-97700D01*
X-1068D01*
X-4400Y-95201D02*
X-2734D01*
X-4968Y-90302D02*
X-8300D01*
Y-95300D01*
X-4968D01*
X-8300Y-92801D02*
X-6634D01*
X-1168Y-88202D02*
X-4500D01*
Y-93200D01*
X-1168D01*
X-4500Y-90701D02*
X-2834D01*
X-15368Y-120168D02*
X-18700D01*
Y-125167D01*
X-15368D01*
X-18700Y-122668D02*
X-17034D01*
X29132Y-106602D02*
X25800D01*
Y-111600D01*
X29132D01*
X25800Y-109101D02*
X27466D01*
X23432Y-106602D02*
X20100D01*
Y-111600D01*
X23432D01*
X20100Y-109101D02*
X21766D01*
X20032Y-123202D02*
X16700D01*
Y-128200D01*
X20032D01*
X16700Y-125701D02*
X18366D01*
X17732Y-111402D02*
X14400D01*
Y-116400D01*
X17732D01*
X14400Y-113901D02*
X16066D01*
X25832Y-109202D02*
X22500D01*
Y-114200D01*
X25832D01*
X22500Y-111701D02*
X24166D01*
X17732Y-117002D02*
X14400D01*
Y-122000D01*
X17732D01*
X14400Y-119501D02*
X16066D01*
X13732Y-117002D02*
X10400D01*
Y-122000D01*
X13732D01*
X10400Y-119501D02*
X12066D01*
X-32468Y-115842D02*
X-35800D01*
Y-120840D01*
X-32468D01*
X-35800Y-118341D02*
X-34134D01*
X-28168Y-120082D02*
X-31500D01*
Y-125080D01*
X-28168D01*
X-31500Y-122581D02*
X-29834D01*
X-28168Y-115842D02*
X-31500D01*
Y-120840D01*
X-28168D01*
X-31500Y-118341D02*
X-29834D01*
X-28168Y-124322D02*
X-31500D01*
Y-129320D01*
X-28168D01*
X-31500Y-126821D02*
X-29834D01*
X-37168Y-110602D02*
X-40500D01*
Y-115600D01*
X-37168D01*
X-40500Y-113101D02*
X-38834D01*
X-31968Y-104002D02*
X-35300D01*
Y-109000D01*
X-31968D01*
X-35300Y-106501D02*
X-33634D01*
X-35768Y-99902D02*
X-39100D01*
Y-104900D01*
X-35768D01*
X-39100Y-102401D02*
X-37434D01*
X25632Y-125202D02*
X22300D01*
Y-130200D01*
X25632D01*
X22300Y-127701D02*
X23966D01*
X30532Y-125202D02*
X27200D01*
Y-130200D01*
X30532D01*
X27200Y-127701D02*
X28866D01*
X-19868Y-96402D02*
X-23200D01*
Y-101400D01*
X-19868D01*
X-23200Y-98901D02*
X-21534D01*
X-21468Y-89502D02*
X-24800D01*
Y-94500D01*
X-21468D01*
X-24800Y-92001D02*
X-23134D01*
X-11268Y-97802D02*
X-14600D01*
Y-102800D01*
X-11268D01*
X-14600Y-100301D02*
X-12934D01*
X-32868Y-106302D02*
X-36200D01*
Y-111300D01*
X-32868D01*
X-36200Y-108801D02*
X-34534D01*
X-37268Y-120082D02*
X-40600D01*
Y-125080D01*
X-37268D01*
X-40600Y-122581D02*
X-38934D01*
X40132Y-120082D02*
X36800D01*
Y-125080D01*
X40132D01*
X36800Y-122581D02*
X38466D01*
X49432Y-121802D02*
X46100D01*
Y-126800D01*
X49432D01*
X46100Y-124301D02*
X47766D01*
X44732Y-80002D02*
X41400D01*
Y-85000D01*
X44732D01*
X41400Y-82501D02*
X43066D01*
X-32468Y-120082D02*
X-35800D01*
Y-125080D01*
X-32468D01*
X-35800Y-122581D02*
X-34134D01*
X-43568Y-122502D02*
X-46900D01*
Y-127500D01*
X-43568D01*
X-46900Y-125001D02*
X-45234D01*
X-28168Y-128562D02*
X-31500D01*
Y-133560D01*
X-28168D01*
X-31500Y-131061D02*
X-29834D01*
X-28168Y-132802D02*
X-31500D01*
Y-137800D01*
X-28168D01*
X-31500Y-135301D02*
X-29834D01*
X35032Y-120082D02*
X31700D01*
Y-125080D01*
X35032D01*
X31700Y-122581D02*
X33366D01*
X35032Y-125202D02*
X31700D01*
Y-130200D01*
X35032D01*
X31700Y-127701D02*
X33366D01*
X35032Y-131002D02*
X31700D01*
Y-136000D01*
X35032D01*
X31700Y-133501D02*
X33366D01*
D94*
X82499Y-53002D02*
X81299Y-51802D01*
X78900D01*
X77700Y-53002D01*
Y-54202D01*
X78900Y-55401D01*
X81299D01*
X82499Y-56601D01*
Y-57800D01*
X81299Y-59000D01*
X78900D01*
X77700Y-57800D01*
X84898Y-54202D02*
Y-57800D01*
X86097Y-59000D01*
X89696D01*
Y-60200D01*
X88497Y-61399D01*
X87297D01*
X89696Y-59000D02*
Y-54202D01*
X92095Y-59000D02*
Y-54202D01*
X93295D01*
X94495Y-55401D01*
Y-59000D01*
Y-55401D01*
X95694Y-54202D01*
X96894Y-55401D01*
Y-59000D01*
X99293Y-51802D02*
Y-59000D01*
X102892D01*
X104092Y-57800D01*
Y-56601D01*
Y-55401D01*
X102892Y-54202D01*
X99293D01*
X107690Y-59000D02*
X110090D01*
X111289Y-57800D01*
Y-55401D01*
X110090Y-54202D01*
X107690D01*
X106491Y-55401D01*
Y-57800D01*
X107690Y-59000D01*
X113688D02*
X116088D01*
X114888D01*
Y-51802D01*
X113688D01*
X130500D02*
Y-59000D01*
Y-55401D01*
X135299D01*
Y-51802D01*
Y-59000D01*
X137698D02*
X140097D01*
X138897D01*
Y-54202D01*
X137698D01*
X144895Y-53002D02*
Y-54202D01*
X143696D01*
X146095D01*
X144895D01*
Y-57800D01*
X146095Y-59000D01*
X161690Y-53002D02*
X160490Y-51802D01*
X158091D01*
X156892Y-53002D01*
Y-57800D01*
X158091Y-59000D01*
X160490D01*
X161690Y-57800D01*
X165289Y-59000D02*
X167688D01*
X168888Y-57800D01*
Y-55401D01*
X167688Y-54202D01*
X165289D01*
X164089Y-55401D01*
Y-57800D01*
X165289Y-59000D01*
X171287Y-54202D02*
Y-57800D01*
X172486Y-59000D01*
X176085D01*
Y-54202D01*
X178484Y-59000D02*
Y-54202D01*
X182083D01*
X183283Y-55401D01*
Y-59000D01*
X186882Y-53002D02*
Y-54202D01*
X185682D01*
X188081D01*
X186882D01*
Y-57800D01*
X188081Y-59000D01*
X204880Y-51802D02*
X200081D01*
Y-55401D01*
X202481D01*
X200081D01*
Y-59000D01*
X207279D02*
X209678D01*
X208479D01*
Y-54202D01*
X207279D01*
X213277Y-59000D02*
Y-54202D01*
X216876D01*
X218075Y-55401D01*
Y-59000D01*
X220475D02*
X222874D01*
X221674D01*
Y-54202D01*
X220475D01*
X226473Y-59000D02*
X230072D01*
X231271Y-57800D01*
X230072Y-56601D01*
X227672D01*
X226473Y-55401D01*
X227672Y-54202D01*
X231271D01*
X233670Y-51802D02*
Y-59000D01*
Y-55401D01*
X234870Y-54202D01*
X237269D01*
X238469Y-55401D01*
Y-59000D01*
X244467D02*
X242068D01*
X240868Y-57800D01*
Y-55401D01*
X242068Y-54202D01*
X244467D01*
X245667Y-55401D01*
Y-56601D01*
X240868D01*
X252864Y-51802D02*
Y-59000D01*
X249265D01*
X248066Y-57800D01*
Y-55401D01*
X249265Y-54202D01*
X252864D01*
X262461Y-51802D02*
Y-59000D01*
Y-55401D01*
X267260D01*
Y-51802D01*
Y-59000D01*
X270858D02*
X273258D01*
X274457Y-57800D01*
Y-55401D01*
X273258Y-54202D01*
X270858D01*
X269659Y-55401D01*
Y-57800D01*
X270858Y-59000D01*
X276856D02*
X279256D01*
X278056D01*
Y-51802D01*
X276856D01*
X286453Y-59000D02*
X284054D01*
X282855Y-57800D01*
Y-55401D01*
X284054Y-54202D01*
X286453D01*
X287653Y-55401D01*
Y-56601D01*
X282855D01*
X302048Y-53002D02*
X300849Y-51802D01*
X298449D01*
X297250Y-53002D01*
Y-54202D01*
X298449Y-55401D01*
X300849D01*
X302048Y-56601D01*
Y-57800D01*
X300849Y-59000D01*
X298449D01*
X297250Y-57800D01*
X304448Y-59000D02*
X306847D01*
X305647D01*
Y-54202D01*
X304448D01*
X310446D02*
X315244D01*
X310446Y-59000D01*
X315244D01*
X321242D02*
X318843D01*
X317643Y-57800D01*
Y-55401D01*
X318843Y-54202D01*
X321242D01*
X322442Y-55401D01*
Y-56601D01*
X317643D01*
X334442Y-59000D02*
Y-51802D01*
X338041D01*
X339240Y-53002D01*
Y-55401D01*
X338041Y-56601D01*
X334442D01*
X341639Y-51802D02*
Y-59000D01*
Y-55401D01*
X342839Y-54202D01*
X345238D01*
X346438Y-55401D01*
Y-59000D01*
X348837Y-54202D02*
Y-57800D01*
X350037Y-59000D01*
X353636D01*
Y-60200D01*
X352436Y-61399D01*
X351236D01*
X353636Y-59000D02*
Y-54202D01*
X356035Y-59000D02*
X359634D01*
X360833Y-57800D01*
X359634Y-56601D01*
X357234D01*
X356035Y-55401D01*
X357234Y-54202D01*
X360833D01*
X363232Y-59000D02*
X365632D01*
X364432D01*
Y-54202D01*
X363232D01*
X374029D02*
X370430D01*
X369231Y-55401D01*
Y-57800D01*
X370430Y-59000D01*
X374029D01*
X377628Y-54202D02*
X380027D01*
X381227Y-55401D01*
Y-59000D01*
X377628D01*
X376428Y-57800D01*
X377628Y-56601D01*
X381227D01*
X383626Y-59000D02*
X386025D01*
X384825D01*
Y-51802D01*
X383626D01*
X396822D02*
Y-59000D01*
X401620D01*
X407618D02*
X405219D01*
X404019Y-57800D01*
Y-55401D01*
X405219Y-54202D01*
X407618D01*
X408818Y-55401D01*
Y-56601D01*
X404019D01*
X411217Y-59000D02*
Y-54202D01*
X414816D01*
X416015Y-55401D01*
Y-59000D01*
X420814Y-61399D02*
X422013D01*
X423213Y-60200D01*
Y-54202D01*
X419614D01*
X418415Y-55401D01*
Y-57800D01*
X419614Y-59000D01*
X423213D01*
X426812Y-53002D02*
Y-54202D01*
X425612D01*
X428012D01*
X426812D01*
Y-57800D01*
X428012Y-59000D01*
X431610Y-51802D02*
Y-59000D01*
Y-55401D01*
X432810Y-54202D01*
X435209D01*
X436409Y-55401D01*
Y-59000D01*
X448409D02*
Y-51802D01*
X452008D01*
X453207Y-53002D01*
Y-55401D01*
X452008Y-56601D01*
X448409D01*
X450808D02*
X453207Y-59000D01*
X456806D02*
X459205D01*
X460405Y-57800D01*
Y-55401D01*
X459205Y-54202D01*
X456806D01*
X455606Y-55401D01*
Y-57800D01*
X456806Y-59000D01*
X462804Y-54202D02*
Y-57800D01*
X464004Y-59000D01*
X467602D01*
Y-54202D01*
X471201Y-53002D02*
Y-54202D01*
X470002D01*
X472401D01*
X471201D01*
Y-57800D01*
X472401Y-59000D01*
X483197D02*
Y-51802D01*
X486796D01*
X487996Y-53002D01*
Y-55401D01*
X486796Y-56601D01*
X483197D01*
X491595Y-54202D02*
X493994D01*
X495194Y-55401D01*
Y-59000D01*
X491595D01*
X490395Y-57800D01*
X491595Y-56601D01*
X495194D01*
X498793Y-53002D02*
Y-54202D01*
X497593D01*
X499992D01*
X498793D01*
Y-57800D01*
X499992Y-59000D01*
X503591Y-51802D02*
Y-59000D01*
Y-55401D01*
X504790Y-54202D01*
X507190D01*
X508389Y-55401D01*
Y-59000D01*
X517986Y-51802D02*
Y-59000D01*
X522785D01*
X528783D02*
X526383D01*
X525184Y-57800D01*
Y-55401D01*
X526383Y-54202D01*
X528783D01*
X529982Y-55401D01*
Y-56601D01*
X525184D01*
X532382Y-59000D02*
Y-54202D01*
X535980D01*
X537180Y-55401D01*
Y-59000D01*
X541979Y-61399D02*
X543178D01*
X544378Y-60200D01*
Y-54202D01*
X540779D01*
X539579Y-55401D01*
Y-57800D01*
X540779Y-59000D01*
X544378D01*
X547976Y-53002D02*
Y-54202D01*
X546777D01*
X549176D01*
X547976D01*
Y-57800D01*
X549176Y-59000D01*
X552775Y-51802D02*
Y-59000D01*
Y-55401D01*
X553975Y-54202D01*
X556374D01*
X557573Y-55401D01*
Y-59000D01*
X569573D02*
Y-51802D01*
X573172D01*
X574372Y-53002D01*
Y-55401D01*
X573172Y-56601D01*
X569573D01*
X576771Y-59000D02*
X579170D01*
X577971D01*
Y-51802D01*
X576771D01*
X583969Y-54202D02*
X586368D01*
X587568Y-55401D01*
Y-59000D01*
X583969D01*
X582769Y-57800D01*
X583969Y-56601D01*
X587568D01*
X591166Y-53002D02*
Y-54202D01*
X589967D01*
X592366D01*
X591166D01*
Y-57800D01*
X592366Y-59000D01*
X599564D02*
X597164D01*
X595965Y-57800D01*
Y-55401D01*
X597164Y-54202D01*
X599564D01*
X600763Y-55401D01*
Y-56601D01*
X595965D01*
X607961Y-51802D02*
Y-59000D01*
X604362D01*
X603163Y-57800D01*
Y-55401D01*
X604362Y-54202D01*
X607961D01*
X619961Y-51802D02*
Y-59000D01*
Y-55401D01*
X624759D01*
Y-51802D01*
Y-59000D01*
X628358D02*
X630758D01*
X631957Y-57800D01*
Y-55401D01*
X630758Y-54202D01*
X628358D01*
X627159Y-55401D01*
Y-57800D01*
X628358Y-59000D01*
X634356D02*
X636756D01*
X635556D01*
Y-51802D01*
X634356D01*
X643953Y-59000D02*
X641554D01*
X640354Y-57800D01*
Y-55401D01*
X641554Y-54202D01*
X643953D01*
X645153Y-55401D01*
Y-56601D01*
X640354D01*
X654750Y-51802D02*
X659548D01*
X657149D01*
Y-59000D01*
X661947Y-54202D02*
Y-57800D01*
X663147Y-59000D01*
X666746D01*
Y-60200D01*
X665546Y-61399D01*
X664347D01*
X666746Y-59000D02*
Y-54202D01*
X669145Y-61399D02*
Y-54202D01*
X672744D01*
X673944Y-55401D01*
Y-57800D01*
X672744Y-59000D01*
X669145D01*
X679942D02*
X677542D01*
X676343Y-57800D01*
Y-55401D01*
X677542Y-54202D01*
X679942D01*
X681141Y-55401D01*
Y-56601D01*
X676343D01*
X68900Y-48200D02*
X693141D01*
X68900Y-64400D02*
X693141D01*
X68900Y-48200D02*
Y-136400D01*
X693141Y-48200D02*
Y-136400D01*
X126100Y-48200D02*
Y-136400D01*
X195681Y-48200D02*
Y-136400D01*
X330042Y-48200D02*
Y-136400D01*
X444009Y-48200D02*
Y-136400D01*
X565173Y-48200D02*
Y-136400D01*
X615561Y-48200D02*
Y-136400D01*
X68900Y-124400D02*
X693141D01*
X68900Y-136400D02*
X693141D01*
D95*
X81699Y-140402D02*
X80699Y-139402D01*
X78700D01*
X77700Y-140402D01*
Y-141401D01*
X78700Y-142401D01*
X80699D01*
X81699Y-143401D01*
Y-144400D01*
X80699Y-145400D01*
X78700D01*
X77700Y-144400D01*
X83698Y-145400D02*
X85697D01*
X84698D01*
Y-139402D01*
X83698D01*
X89696Y-145400D02*
X91695D01*
X92695Y-144400D01*
Y-142401D01*
X91695Y-141401D01*
X89696D01*
X88696Y-142401D01*
Y-144400D01*
X89696Y-145400D01*
X95694Y-140402D02*
Y-141401D01*
X94695D01*
X96694D01*
X95694D01*
Y-144400D01*
X96694Y-145400D01*
X109690Y-139402D02*
Y-145400D01*
X106691D01*
X105691Y-144400D01*
Y-142401D01*
X106691Y-141401D01*
X109690D01*
X114688Y-145400D02*
X112689D01*
X111689Y-144400D01*
Y-142401D01*
X112689Y-141401D01*
X114688D01*
X115688Y-142401D01*
Y-143401D01*
X111689D01*
X118687Y-145400D02*
Y-140402D01*
Y-142401D01*
X117687D01*
X119686D01*
X118687D01*
Y-140402D01*
X119686Y-139402D01*
X122685Y-145400D02*
X124685D01*
X123685D01*
Y-141401D01*
X122685D01*
X127684Y-145400D02*
Y-141401D01*
X130683D01*
X131683Y-142401D01*
Y-145400D01*
X133682D02*
X135681D01*
X134682D01*
Y-141401D01*
X133682D01*
X139680Y-140402D02*
Y-141401D01*
X138680D01*
X140680D01*
X139680D01*
Y-144400D01*
X140680Y-145400D01*
X143679D02*
X145678D01*
X144678D01*
Y-141401D01*
X143679D01*
X149677Y-145400D02*
X151676D01*
X152676Y-144400D01*
Y-142401D01*
X151676Y-141401D01*
X149677D01*
X148677Y-142401D01*
Y-144400D01*
X149677Y-145400D01*
X154675D02*
Y-141401D01*
X157674D01*
X158674Y-142401D01*
Y-145400D01*
X160673D02*
X163672D01*
X164672Y-144400D01*
X163672Y-143401D01*
X161673D01*
X160673Y-142401D01*
X161673Y-141401D01*
X164672D01*
X172669D02*
X173669D01*
Y-142401D01*
X172669D01*
Y-141401D01*
Y-144400D02*
X173669D01*
Y-145400D01*
X172669D01*
Y-144400D01*
X185269Y-145400D02*
Y-139402D01*
X188268D01*
X189268Y-140402D01*
Y-142401D01*
X188268Y-143401D01*
X185269D01*
X187268D02*
X189268Y-145400D01*
X192267D02*
X194266D01*
X195266Y-144400D01*
Y-142401D01*
X194266Y-141401D01*
X192267D01*
X191267Y-142401D01*
Y-144400D01*
X192267Y-145400D01*
X197265Y-141401D02*
Y-144400D01*
X198265Y-145400D01*
X201264D01*
Y-141401D01*
X204263Y-140402D02*
Y-141401D01*
X203263D01*
X205262D01*
X204263D01*
Y-144400D01*
X205262Y-145400D01*
X214260D02*
Y-139402D01*
X217259D01*
X218258Y-140402D01*
Y-142401D01*
X217259Y-143401D01*
X214260D01*
X221257Y-141401D02*
X223257D01*
X224256Y-142401D01*
Y-145400D01*
X221257D01*
X220258Y-144400D01*
X221257Y-143401D01*
X224256D01*
X227255Y-140402D02*
Y-141401D01*
X226256D01*
X228255D01*
X227255D01*
Y-144400D01*
X228255Y-145400D01*
X231254Y-139402D02*
Y-145400D01*
Y-142401D01*
X232254Y-141401D01*
X234253D01*
X235253Y-142401D01*
Y-145400D01*
X243250Y-139402D02*
Y-145400D01*
X247249D01*
X252247D02*
X250248D01*
X249248Y-144400D01*
Y-142401D01*
X250248Y-141401D01*
X252247D01*
X253247Y-142401D01*
Y-143401D01*
X249248D01*
X255246Y-145400D02*
Y-141401D01*
X258245D01*
X259245Y-142401D01*
Y-145400D01*
X263244Y-147399D02*
X264243D01*
X265243Y-146400D01*
Y-141401D01*
X262244D01*
X261244Y-142401D01*
Y-144400D01*
X262244Y-145400D01*
X265243D01*
X268242Y-140402D02*
Y-141401D01*
X267242D01*
X269242D01*
X268242D01*
Y-144400D01*
X269242Y-145400D01*
X272241Y-139402D02*
Y-145400D01*
Y-142401D01*
X273240Y-141401D01*
X275240D01*
X276239Y-142401D01*
Y-145400D01*
X185269Y-157400D02*
Y-151402D01*
X188268D01*
X189268Y-152402D01*
Y-154401D01*
X188268Y-155401D01*
X185269D01*
X191267Y-151402D02*
Y-157400D01*
Y-154401D01*
X192267Y-153401D01*
X194266D01*
X195266Y-154401D01*
Y-157400D01*
X197265Y-153401D02*
Y-156400D01*
X198265Y-157400D01*
X201264D01*
Y-158400D01*
X200264Y-159399D01*
X199264D01*
X201264Y-157400D02*
Y-153401D01*
X203263Y-157400D02*
X206262D01*
X207262Y-156400D01*
X206262Y-155401D01*
X204263D01*
X203263Y-154401D01*
X204263Y-153401D01*
X207262D01*
X209261Y-157400D02*
X211261D01*
X210261D01*
Y-153401D01*
X209261D01*
X218258D02*
X215259D01*
X214260Y-154401D01*
Y-156400D01*
X215259Y-157400D01*
X218258D01*
X221257Y-153401D02*
X223257D01*
X224256Y-154401D01*
Y-157400D01*
X221257D01*
X220258Y-156400D01*
X221257Y-155401D01*
X224256D01*
X226256Y-157400D02*
X228255D01*
X227255D01*
Y-151402D01*
X226256D01*
X237252D02*
Y-157400D01*
X241251D01*
X246249D02*
X244250D01*
X243250Y-156400D01*
Y-154401D01*
X244250Y-153401D01*
X246249D01*
X247249Y-154401D01*
Y-155401D01*
X243250D01*
X249248Y-157400D02*
Y-153401D01*
X252247D01*
X253247Y-154401D01*
Y-157400D01*
X257246Y-159399D02*
X258245D01*
X259245Y-158400D01*
Y-153401D01*
X256246D01*
X255246Y-154401D01*
Y-156400D01*
X256246Y-157400D01*
X259245D01*
X262244Y-152402D02*
Y-153401D01*
X261244D01*
X263244D01*
X262244D01*
Y-156400D01*
X263244Y-157400D01*
X266243Y-151402D02*
Y-157400D01*
Y-154401D01*
X267242Y-153401D01*
X269242D01*
X270241Y-154401D01*
Y-157400D01*
M02*
