G04 Layer_Color=255*
%FSLAX25Y25*%
%MOIN*%
G70*
G01*
G75*
%ADD10R,0.08268X0.03543*%
%ADD11R,0.08268X0.12598*%
%ADD12R,0.02000X0.02000*%
%ADD13R,0.01181X0.03937*%
%ADD14R,0.03937X0.01181*%
%ADD15R,0.03937X0.01181*%
%ADD16R,0.01181X0.03937*%
%ADD17R,0.11500X0.11500*%
%ADD18R,0.02000X0.02000*%
%ADD19R,0.03740X0.03937*%
%ADD20R,0.01500X0.05400*%
%ADD21R,0.06299X0.03937*%
%ADD22R,0.03937X0.03543*%
%ADD23R,0.05906X0.04500*%
%ADD24R,0.03937X0.03937*%
%ADD25R,0.08661X0.07874*%
%ADD26R,0.05000X0.05000*%
%ADD27R,0.03268X0.02480*%
%ADD42C,0.11500*%
%ADD43C,0.04724*%
%ADD44O,0.05906X0.07480*%
%ADD45C,0.06900*%
%ADD46R,0.06900X0.06900*%
D10*
X-6120Y-57545D02*
D03*
Y-66600D02*
D03*
Y-75655D02*
D03*
D11*
X16320Y-66600D02*
D03*
D12*
X-18700Y-57545D02*
D03*
X-14700D02*
D03*
D13*
X8637Y-97058D02*
D03*
Y-116743D02*
D03*
X6668D02*
D03*
X4700D02*
D03*
X2732D02*
D03*
X763D02*
D03*
X-1206D02*
D03*
Y-97058D02*
D03*
X763D02*
D03*
X2732D02*
D03*
X4700D02*
D03*
X6668D02*
D03*
X10605D02*
D03*
D14*
X-5142Y-108869D02*
D03*
X14543Y-100995D02*
D03*
Y-102964D02*
D03*
Y-104932D02*
D03*
Y-106901D02*
D03*
Y-108869D02*
D03*
Y-110838D02*
D03*
X-5142Y-112806D02*
D03*
Y-110838D02*
D03*
Y-106901D02*
D03*
Y-104932D02*
D03*
Y-102964D02*
D03*
Y-100995D02*
D03*
D15*
X14542Y-112805D02*
D03*
D16*
X10605Y-116742D02*
D03*
D17*
X4700Y-106901D02*
D03*
D18*
X-26075Y-85476D02*
D03*
Y-89476D02*
D03*
X-35600Y17100D02*
D03*
Y21100D02*
D03*
X-13037Y-85476D02*
D03*
Y-89476D02*
D03*
X19556Y-85476D02*
D03*
Y-89476D02*
D03*
X32593D02*
D03*
Y-85476D02*
D03*
X13037Y-89476D02*
D03*
Y-85476D02*
D03*
X-35600Y-5600D02*
D03*
Y-1600D02*
D03*
X6519Y-89438D02*
D03*
Y-85438D02*
D03*
X-35600Y5731D02*
D03*
Y9731D02*
D03*
X26075Y-89476D02*
D03*
Y-85476D02*
D03*
X35600Y-39400D02*
D03*
Y-35400D02*
D03*
Y-28050D02*
D03*
Y-24050D02*
D03*
Y-12700D02*
D03*
Y-16700D02*
D03*
X-19556Y-85476D02*
D03*
Y-89476D02*
D03*
X-32593Y-85476D02*
D03*
Y-89476D02*
D03*
X-6519D02*
D03*
Y-85476D02*
D03*
X-19380Y-106400D02*
D03*
Y-110400D02*
D03*
X-12920Y-106400D02*
D03*
Y-110400D02*
D03*
X0Y-89438D02*
D03*
Y-85438D02*
D03*
D19*
X25113Y-77612D02*
D03*
X32593Y-77612D02*
D03*
X28853Y-68753D02*
D03*
Y-106516D02*
D03*
X25113Y-97658D02*
D03*
X32593Y-97658D02*
D03*
D20*
X-5100Y-127000D02*
D03*
X2550D02*
D03*
X5100D02*
D03*
X0D02*
D03*
X-2550D02*
D03*
D21*
X28740Y-43176D02*
D03*
Y-35302D02*
D03*
Y-27428D02*
D03*
Y-19554D02*
D03*
Y-11680D02*
D03*
Y-3805D02*
D03*
Y4069D02*
D03*
Y11942D02*
D03*
X-28740D02*
D03*
Y4069D02*
D03*
Y-3805D02*
D03*
Y-11680D02*
D03*
Y-19554D02*
D03*
Y-27428D02*
D03*
Y-35302D02*
D03*
Y-43176D02*
D03*
D22*
X-19685Y-47900D02*
D03*
X-11811D02*
D03*
X-3937D02*
D03*
X3937D02*
D03*
X11811D02*
D03*
X19685D02*
D03*
D23*
X24500Y-141169D02*
D03*
Y-124831D02*
D03*
X-24500Y-141169D02*
D03*
Y-124831D02*
D03*
D24*
X-19250Y-97700D02*
D03*
X-12950D02*
D03*
D25*
X-28900Y-72505D02*
D03*
Y-60694D02*
D03*
D26*
X-16700Y-76481D02*
D03*
Y-69081D02*
D03*
D27*
X-30700Y-110890D02*
D03*
Y-102110D02*
D03*
D42*
X41000Y36000D02*
D03*
X-41000D02*
D03*
Y-136000D02*
D03*
X41000D02*
D03*
D43*
X9550Y-127000D02*
D03*
X-9550D02*
D03*
D44*
X-14300Y-137400D02*
D03*
X14300D02*
D03*
D45*
X45000Y-120000D02*
D03*
Y-80000D02*
D03*
Y-90000D02*
D03*
Y-100000D02*
D03*
Y-70000D02*
D03*
Y-60000D02*
D03*
Y-50000D02*
D03*
Y20000D02*
D03*
Y10000D02*
D03*
Y0D02*
D03*
Y-10000D02*
D03*
Y-20000D02*
D03*
Y-30000D02*
D03*
X-45000Y-120000D02*
D03*
Y-80000D02*
D03*
Y-90000D02*
D03*
Y-100000D02*
D03*
Y-60000D02*
D03*
Y-50000D02*
D03*
Y-40000D02*
D03*
Y20000D02*
D03*
Y10000D02*
D03*
Y0D02*
D03*
Y-10000D02*
D03*
Y-20000D02*
D03*
Y-30000D02*
D03*
D46*
X45000Y-110000D02*
D03*
Y-40000D02*
D03*
X-45000Y-110000D02*
D03*
Y-70000D02*
D03*
M02*
