G04 Layer_Color=8388736*
%FSLAX25Y25*%
%MOIN*%
G70*
G01*
G75*
%ADD36R,0.04300X0.04100*%
%ADD60R,0.28600X0.08200*%
%ADD61R,0.21200X0.12000*%
%ADD62R,0.09068X0.04343*%
%ADD63R,0.09068X0.13398*%
%ADD64R,0.02800X0.02800*%
%ADD65R,0.01981X0.04737*%
%ADD66R,0.04737X0.01981*%
%ADD67R,0.04737X0.01981*%
%ADD68R,0.01981X0.04737*%
%ADD69R,0.12300X0.12300*%
%ADD70R,0.02800X0.02800*%
%ADD71R,0.04540X0.04737*%
%ADD72R,0.02300X0.06200*%
%ADD73R,0.07099X0.04737*%
%ADD74R,0.04737X0.04343*%
%ADD75R,0.06706X0.05300*%
%ADD76R,0.04737X0.04737*%
%ADD77R,0.09461X0.08674*%
%ADD78R,0.05800X0.05800*%
%ADD79R,0.04068X0.03280*%
%ADD80C,0.05524*%
%ADD81O,0.06706X0.08280*%
%ADD82C,0.07700*%
%ADD83R,0.07700X0.07700*%
D36*
X-11650Y-128550D02*
D03*
X11650D02*
D03*
D60*
X0Y-137400D02*
D03*
D61*
Y-139000D02*
D03*
D62*
X-6120Y-57545D02*
D03*
Y-66600D02*
D03*
Y-75655D02*
D03*
D63*
X16320Y-66600D02*
D03*
D64*
X-18700Y-57545D02*
D03*
X-14700D02*
D03*
D65*
X8637Y-97058D02*
D03*
Y-116743D02*
D03*
X6668D02*
D03*
X4700D02*
D03*
X2732D02*
D03*
X763D02*
D03*
X-1206D02*
D03*
Y-97058D02*
D03*
X763D02*
D03*
X2732D02*
D03*
X4700D02*
D03*
X6668D02*
D03*
X10605D02*
D03*
D66*
X-5142Y-108869D02*
D03*
X14543Y-100995D02*
D03*
Y-102964D02*
D03*
Y-104932D02*
D03*
Y-106901D02*
D03*
Y-108869D02*
D03*
Y-110838D02*
D03*
X-5142Y-112806D02*
D03*
Y-110838D02*
D03*
Y-106901D02*
D03*
Y-104932D02*
D03*
Y-102964D02*
D03*
Y-100995D02*
D03*
D67*
X14542Y-112805D02*
D03*
D68*
X10605Y-116742D02*
D03*
D69*
X4700Y-106901D02*
D03*
D70*
X-26075Y-85476D02*
D03*
Y-89476D02*
D03*
X-35600Y17100D02*
D03*
Y21100D02*
D03*
X-13037Y-85476D02*
D03*
Y-89476D02*
D03*
X19556Y-85476D02*
D03*
Y-89476D02*
D03*
X32593D02*
D03*
Y-85476D02*
D03*
X13037Y-89476D02*
D03*
Y-85476D02*
D03*
X-35600Y-5600D02*
D03*
Y-1600D02*
D03*
X6519Y-89438D02*
D03*
Y-85438D02*
D03*
X-35600Y5731D02*
D03*
Y9731D02*
D03*
X26075Y-89476D02*
D03*
Y-85476D02*
D03*
X35600Y-39400D02*
D03*
Y-35400D02*
D03*
Y-28050D02*
D03*
Y-24050D02*
D03*
Y-12700D02*
D03*
Y-16700D02*
D03*
X-19556Y-85476D02*
D03*
Y-89476D02*
D03*
X-32593Y-85476D02*
D03*
Y-89476D02*
D03*
X-6519D02*
D03*
Y-85476D02*
D03*
X-19380Y-106400D02*
D03*
Y-110400D02*
D03*
X-12920Y-106400D02*
D03*
Y-110400D02*
D03*
X0Y-89438D02*
D03*
Y-85438D02*
D03*
D71*
X25113Y-77612D02*
D03*
X32593Y-77612D02*
D03*
X28853Y-68753D02*
D03*
Y-106516D02*
D03*
X25113Y-97658D02*
D03*
X32593Y-97658D02*
D03*
D72*
X-5100Y-127000D02*
D03*
X2550D02*
D03*
X5100D02*
D03*
X0D02*
D03*
X-2550D02*
D03*
D73*
X28740Y-43176D02*
D03*
Y-35302D02*
D03*
Y-27428D02*
D03*
Y-19554D02*
D03*
Y-11680D02*
D03*
Y-3805D02*
D03*
Y4069D02*
D03*
Y11942D02*
D03*
X-28740D02*
D03*
Y4069D02*
D03*
Y-3805D02*
D03*
Y-11680D02*
D03*
Y-19554D02*
D03*
Y-27428D02*
D03*
Y-35302D02*
D03*
Y-43176D02*
D03*
D74*
X-19685Y-47900D02*
D03*
X-11811D02*
D03*
X-3937D02*
D03*
X3937D02*
D03*
X11811D02*
D03*
X19685D02*
D03*
D75*
X24500Y-141169D02*
D03*
Y-124831D02*
D03*
X-24500Y-141169D02*
D03*
Y-124831D02*
D03*
D76*
X-19250Y-97700D02*
D03*
X-12950D02*
D03*
D77*
X-28900Y-72505D02*
D03*
Y-60694D02*
D03*
D78*
X-16700Y-76481D02*
D03*
Y-69081D02*
D03*
D79*
X-30700Y-110890D02*
D03*
Y-102110D02*
D03*
D80*
X9550Y-127000D02*
D03*
X-9550D02*
D03*
D81*
X-14300Y-137400D02*
D03*
X14300D02*
D03*
D82*
X45000Y-120000D02*
D03*
Y-80000D02*
D03*
Y-90000D02*
D03*
Y-100000D02*
D03*
Y-70000D02*
D03*
Y-60000D02*
D03*
Y-50000D02*
D03*
Y20000D02*
D03*
Y10000D02*
D03*
Y0D02*
D03*
Y-10000D02*
D03*
Y-20000D02*
D03*
Y-30000D02*
D03*
X-45000Y-120000D02*
D03*
Y-80000D02*
D03*
Y-90000D02*
D03*
Y-100000D02*
D03*
Y-60000D02*
D03*
Y-50000D02*
D03*
Y-40000D02*
D03*
Y20000D02*
D03*
Y10000D02*
D03*
Y0D02*
D03*
Y-10000D02*
D03*
Y-20000D02*
D03*
Y-30000D02*
D03*
D83*
X45000Y-110000D02*
D03*
Y-40000D02*
D03*
X-45000Y-110000D02*
D03*
Y-70000D02*
D03*
M02*
