M48
;Layer_Color=9474304
;FILE_FORMAT=2:5
INCH,LZ
;TYPE=PLATED
T1F00S00C0.01181
T2F00S00C0.02750
T4F00S00C0.03500
%
T01
X000765Y-01424
Y-01385
Y-01346
X00051Y-0122
X00104
X00144
Y-01164
X00093Y-01115
X00065
Y-0108433
X00093
Y-0105367
X00065
Y-01023
X00093
X00182Y-0101
X00201Y-01116
X00225Y-01142
X00258Y-01116
X00343Y-01183
X00368Y-01209
Y-012508
X00317
Y-01209
Y-01302
X00272
X00223
X00167Y-01282
X0019547Y-0141169
X00245Y-0137016
X00317Y-0136
X0029453Y-01412
X00461Y-01268
X00392Y-01151
Y-01039
Y-00952
Y-00844
X00414Y-0085
X00291Y-00906
X00163Y-00882
X00131Y-00825
X00052Y-00932
Y-0058
Y-00547
X00067Y-00422
X00189Y-00421
X002Y-00516
X00173
Y-00591
X002
X00268Y-00618
X0029
Y-00641
X00268
X00313Y-00618
X00365Y-00625
Y-00598
X00362Y-00515
Y-0048733
Y-0045967
Y-00432
X00299Y-00473
X00268
X00283Y-00489
X000265Y-00547
X00001
Y-0058
X000265
X-00119
Y-00547
X-00147
X-0022Y-00668
X-0025325
X-002865
X-0031975
X-00353
Y-0071
Y-00752
X-0020719Y-0075261
Y-0077819
X-0022Y-0071
X-00248Y-00945
X-0023Y-00978
X-00232Y-01014
X-00146Y-01028
X-00095Y-01053
X-000962Y-01104
X-00095Y-01153
X-00049Y-01163
Y-01194
X-00028Y-0122
X00002
X-00115Y-0121333
X-00151
X-00187
Y-0125167
X-00151
X-00187Y-0129
X-0019547Y-0141169
X-00245Y-0137016
X-00315Y-01378
Y-013356
Y-012932
Y-012508
Y-012084
X-00358
Y-012508
Y-012932
X-00406Y-012508
X-00469Y-01275
X-00405Y-01156
X-00349Y-01151
X-00332Y-01134
X-00362Y-01113
X-00353Y-0109
X-00391Y-01049
X-001608Y-01104
X-00083Y-00977
Y-00953
X-00045Y-00932
X-00044Y-00977
X00001Y-01023
Y-0105
X00037Y-01115
X00022Y-00932
X00033Y-0085438
X-00033
X-0004Y-00422
X-00063Y-00399
X-000495Y-01346
X-00081
Y-01385
X-000495
X-00018
X000135
X00045
Y-01424
X000135
X-00018
X-000495
X-00081
X-00018Y-01346
X000135
X00045
X-0029453Y-0141139
X-00235Y-0035302
Y-0027428
Y-0019554
X-00202Y-0022
X-00173Y-0025
X-00133Y-00222
X-00108Y-00247
X-00083Y-00272
X-00058Y-00297
X-00033Y-00322
X-00008Y-00347
X00017Y-00372
X00042Y-00397
X-00086Y-00376
X-00113Y-00329
X-00144Y-00297
X-00158Y-00197
X-00183Y-00172
X-00164Y-00144
X-00207
Y-00092
Y-00053
Y-00014
Y00025
Y00064
Y00111
Y00142
X-002165Y00212
X-00252
X-002875
X-00323
X-00181
X-001455
X-0011
X-000745
X-00039
X-000035
X00032
X-00001Y00074
X00041Y-00017
X00016Y-00042
X-00009Y-00067
X-00034Y-00092
X-00077
X-0012
X-00163
X-00121Y-00144
X-00078
X-00035
X00003Y-00124
X00028Y-00099
X-000715Y-00001
Y00142
X-002465Y-000775
X-00286Y-00077
X-0024Y-001168
X-00389Y-00056
X-00416Y-0005
X00053Y-00074
X00078Y-00049
X00103Y-00024
X00128Y00001
X00153Y00026
X00178Y00051
X00203Y00076
X00228Y00101
X00216Y00158
X00241Y00183
X00245Y00212
X002095
X00174
X001385
X00103
X000675
X00064Y00142
X00116Y00058
X00141Y00083
X00166Y00108
X00191Y00133
X00189Y00008
Y-00031
Y-0007
Y-00109
Y-00148
Y-00187
Y-00226
Y-00265
Y-00304
Y-00343
Y-00382
X00326Y-00313
X00351
X00326Y-00154
X00316Y00212
X002805
X003515
X00091Y00033
X00066Y00008
T02
X000955Y-0127
X-000955
T04
X0045Y-012
Y-011
Y-01
Y-009
Y-008
Y-007
Y-006
Y-005
Y-004
X-0045
Y-005
Y-006
Y-007
Y-008
Y-009
Y-01
Y-011
Y-012
Y-003
Y-002
Y-001
Y0
Y001
Y002
X0045
Y001
Y0
Y-001
Y-002
Y-003
M30
